<svg xmlns="http://www.w3.org/2000/svg" xmlns:xlink="http://www.w3.org/1999/xlink" width="312.209pt" height="28.745pt" viewBox="0 0 312.209 28.745">
<defs>
<clipPath id="clip-0">
<path clip-rule="nonzero" d="M 0.980469 0 L 86 0 L 86 28.492188 L 0.980469 28.492188 Z M 0.980469 0 "/>
</clipPath>
<clipPath id="clip-1">
<path clip-rule="nonzero" d="M 85 0 L 227 0 L 227 28.492188 L 85 28.492188 Z M 85 0 "/>
</clipPath>
<clipPath id="clip-2">
<path clip-rule="nonzero" d="M 225 0 L 310.445312 0 L 310.445312 28.492188 L 225 28.492188 Z M 225 0 "/>
</clipPath>
</defs>
<g clip-path="url(#clip-0)">
<path fill="none" stroke-width="0.3985" stroke-linecap="butt" stroke-linejoin="miter" stroke="rgb(0%, 0%, 0%)" stroke-opacity="1" stroke-miterlimit="10" d="M 0.00183275 -0.00189963 L 0.00183275 28.345014 L 85.038633 28.345014 L 85.038633 -0.00189963 Z M 0.00183275 -0.00189963 " transform="matrix(0.991207, 0, 0, -0.991207, 1.177871, 28.294992)"/>
</g>
<g clip-path="url(#clip-1)">
<path fill="none" stroke-width="0.3985" stroke-linecap="butt" stroke-linejoin="miter" stroke="rgb(0%, 0%, 0%)" stroke-opacity="1" stroke-miterlimit="10" d="M 85.038633 -0.00189963 L 85.038633 28.345014 L 226.773201 28.345014 L 226.773201 -0.00189963 Z M 85.038633 -0.00189963 " transform="matrix(0.991207, 0, 0, -0.991207, 1.177871, 28.294992)"/>
</g>
<g clip-path="url(#clip-2)">
<path fill="none" stroke-width="0.3985" stroke-linecap="butt" stroke-linejoin="miter" stroke="rgb(0%, 0%, 0%)" stroke-opacity="1" stroke-miterlimit="10" d="M 226.773201 -0.00189963 L 226.773201 28.345014 L 311.813941 28.345014 L 311.813941 -0.00189963 Z M 226.773201 -0.00189963 " transform="matrix(0.991207, 0, 0, -0.991207, 1.177871, 28.294992)"/>
</g>
</svg>