<?xml version="1.0" encoding="UTF-8" standalone="no"?>
<!-- Created with Inkscape (http://www.inkscape.org/) -->

<svg
   version="1.1"
   id="svg1"
   width="3266.6667"
   height="2177.7732"
   viewBox="0 0 3266.6667 2177.7732"
   sodipodi:docname="shutterstock_1825515353.eps"
   xmlns:inkscape="http://www.inkscape.org/namespaces/inkscape"
   xmlns:sodipodi="http://sodipodi.sourceforge.net/DTD/sodipodi-0.dtd"
   xmlns="http://www.w3.org/2000/svg"
   xmlns:svg="http://www.w3.org/2000/svg">
  <defs
     id="defs1" />
  <sodipodi:namedview
     id="namedview1"
     pagecolor="#ffffff"
     bordercolor="#000000"
     borderopacity="0.25"
     inkscape:showpageshadow="2"
     inkscape:pageopacity="0.0"
     inkscape:pagecheckerboard="0"
     inkscape:deskcolor="#d1d1d1">
    <inkscape:page
       x="0"
       y="0"
       inkscape:label="1"
       id="page1"
       width="3266.6667"
       height="2177.7732"
       margin="0"
       bleed="0" />
  </sodipodi:namedview>
  <g
     id="g1"
     inkscape:groupmode="layer"
     inkscape:label="1">
    <g
       id="group-R5">
      <path
         id="path2"
         d="M 25104.3,-1151.5 H -1380.17 V 17403.1 H 25104.3 V -1151.5"
         style="fill:#ffffff;fill-opacity:1;fill-rule:nonzero;stroke:none"
         transform="matrix(0.13333333,0,0,-0.13333333,0,2177.7733)" />
      <path
         id="path3"
         d="m 5141.52,10423.8 c -0.64,15.1 11.11,27.9 26.23,28.6 41.72,1.8 83.96,2.4 125.83,2 15.15,-0.1 27.3,-12.5 27.15,-27.7 -0.14,-15.1 -12.41,-27.6 -27.68,-27.1 -40.95,0.4 -82.2,-0.3 -122.96,-2 -0.4,0 -0.79,0 -1.19,0 -14.6,0 -26.75,11.5 -27.38,26.2 z m 397.02,-39.6 c -40.35,4.7 -81.58,8.4 -122.53,11 -15.12,0.9 -26.6,13.9 -25.65,29 0.94,15.2 14.03,26.6 29.08,25.7 41.93,-2.6 84.14,-6.4 125.46,-11.2 15.04,-1.8 25.81,-15.4 24.05,-30.5 -1.63,-13.9 -13.48,-24.2 -27.2,-24.2 -1.06,0 -2.14,0.1 -3.21,0.2 z m -644.4,12.8 c -2.27,15 8.03,29 23,31.3 41.08,6.2 83.14,11.4 125.01,15.4 15.09,1.5 28.47,-9.6 29.92,-24.7 1.44,-15.1 -9.61,-28.5 -24.69,-29.9 -40.87,-3.9 -81.93,-9 -122.02,-15.1 -1.39,-0.2 -2.78,-0.3 -4.14,-0.3 -13.33,0 -25.02,9.7 -27.08,23.3 z m 886.48,-55 c -39.34,9.2 -79.85,17.5 -120.41,24.5 -14.92,2.6 -24.91,16.8 -22.32,31.8 2.6,14.9 16.82,24.9 31.71,22.3 41.61,-7.3 83.17,-15.7 123.54,-25.2 14.75,-3.5 23.9,-18.2 20.44,-33 -2.97,-12.6 -14.23,-21.1 -26.68,-21.1 -2.07,0 -4.18,0.2 -6.28,0.7 z m -1129.37,1 c -3.87,14.7 4.86,29.7 19.5,33.5 28.49,7.6 57.55,14.7 86.4,21.4 11.92,2.7 23.91,5.4 35.97,7.9 14.82,3.1 29.37,-6.4 32.5,-21.2 3.13,-14.8 -6.34,-29.3 -21.16,-32.5 -11.75,-2.4 -23.43,-5 -35.04,-7.7 -28.26,-6.5 -56.74,-13.5 -84.65,-20.9 -2.35,-0.6 -4.71,-0.9 -7.03,-0.9 -12.14,0 -23.24,8.1 -26.49,20.4 z m 1364.18,-71.9 c -37.64,14.1 -76.74,27.3 -116.21,39.2 -14.5,4.4 -22.72,19.7 -18.35,34.2 4.37,14.5 19.65,22.7 34.17,18.3 40.63,-12.2 80.89,-25.8 119.66,-40.4 14.18,-5.3 21.36,-21.1 16.04,-35.3 -4.13,-11 -14.58,-17.8 -25.68,-17.8 -3.2,0 -6.46,0.6 -9.63,1.8 z m -1600.62,-5.5 c -5.25,14.3 2.02,30 16.22,35.3 38.93,14.4 78.96,28 118.97,40.7 14.46,4.5 29.85,-3.5 34.41,-17.9 4.55,-14.5 -3.46,-29.9 -17.91,-34.4 -39.18,-12.4 -78.36,-25.8 -116.47,-39.9 -3.13,-1.1 -6.34,-1.7 -9.49,-1.7 -11.16,0 -21.64,6.9 -25.73,17.9 z m 1822.8,-96.9 c -34.98,19.5 -71.68,38.1 -109.09,55.3 -13.77,6.3 -19.79,22.6 -13.47,36.4 6.33,13.7 22.61,19.8 36.37,13.4 38.7,-17.7 76.68,-37 112.9,-57.2 13.23,-7.4 17.97,-24.1 10.6,-37.3 -5.02,-9 -14.36,-14.1 -23.98,-14.1 -4.52,0 -9.1,1.2 -13.33,3.5 z m -2050.49,-3.3 c -6.64,13.6 -1,30 12.61,36.7 37.44,18.3 75.94,35.9 114.43,52.3 13.93,5.9 30.04,-0.5 35.98,-14.5 5.95,-13.9 -0.53,-30 -14.46,-36 -37.63,-16 -75.27,-33.2 -111.88,-51.1 -3.87,-1.9 -7.97,-2.8 -12.01,-2.8 -10.15,0 -19.91,5.7 -24.67,15.4 z M 3971,10042.2 c -8.04,12.8 -4.14,29.8 8.69,37.8 35.31,22.1 71.79,43.6 108.43,63.9 13.24,7.4 29.94,2.6 37.28,-10.6 7.34,-13.3 2.56,-30 -10.68,-37.3 -35.79,-19.9 -71.43,-40.9 -105.92,-62.5 -4.53,-2.8 -9.56,-4.2 -14.53,-4.2 -9.13,0 -18.06,4.6 -23.27,12.9 z m 2468.6,-10 c -30.97,25.3 -63.91,49.7 -97.91,72.6 -12.55,8.5 -15.87,25.6 -7.41,38.1 8.46,12.6 25.51,15.9 38.07,7.4 35.37,-23.8 69.67,-49.3 101.92,-75.6 11.74,-9.5 13.49,-26.8 3.91,-38.6 -5.42,-6.6 -13.31,-10 -21.26,-10 -6.09,0 -12.23,2 -17.32,6.1 z M 3769.36,9896.53 c -9.38,11.88 -7.36,29.12 4.52,38.51 32.72,25.85 66.68,51.18 100.94,75.36 12.39,8.6 29.5,5.7 38.21,-6.7 8.72,-12.38 5.75,-29.49 -6.63,-38.2 -33.45,-23.55 -66.59,-48.27 -98.52,-73.5 -5.03,-3.97 -11.03,-5.91 -16.98,-5.91 -8.1,0 -16.12,3.58 -21.54,10.44 z m 2842.4,-35.65 c -25.36,31.02 -52.85,61.28 -81.71,89.95 -10.74,10.67 -10.8,28.04 -0.13,38.78 10.68,10.79 28.03,10.79 38.79,0.13 30.18,-29.99 58.96,-61.66 85.51,-94.15 9.59,-11.72 7.85,-28.99 -3.87,-38.58 -5.1,-4.17 -11.24,-6.2 -17.34,-6.2 -7.95,0 -15.83,3.45 -21.25,10.07 z M 3585.15,9729.32 c -10.66,10.76 -10.59,28.12 0.17,38.78 29.66,29.42 60.59,58.4 91.94,86.13 11.33,10.04 28.67,8.97 38.71,-2.37 10.04,-11.34 8.98,-28.67 -2.37,-38.7 -30.57,-27.05 -60.74,-55.31 -89.66,-84 -5.35,-5.3 -12.33,-7.95 -19.32,-7.95 -7.05,0 -14.11,2.7 -19.47,8.11 z m 3159.17,-71.41 c -18.32,35.98 -38.78,71.32 -60.81,105.03 -8.28,12.69 -4.72,29.68 7.96,37.97 12.67,8.26 29.66,4.7 37.95,-7.96 23.11,-35.36 44.56,-72.42 63.77,-110.14 6.88,-13.5 1.51,-30.01 -11.98,-36.88 -3.99,-2.03 -8.25,-3 -12.43,-3 -9.99,0 -19.61,5.47 -24.46,14.98 z M 3421.31,9542.12 c -11.83,9.45 -13.78,26.7 -4.33,38.53 26.02,32.61 53.42,64.97 81.45,96.18 10.11,11.26 27.45,12.2 38.73,2.08 11.26,-10.13 12.2,-27.47 2.07,-38.74 -27.32,-30.41 -54.02,-61.94 -79.38,-93.72 -5.41,-6.78 -13.39,-10.32 -21.45,-10.32 -5.99,0 -12.03,1.96 -17.09,5.99 z m 3410.32,-111.07 c -5.17,18.14 -10.63,36.22 -16.24,53.75 -6.71,20.96 -14.05,41.87 -21.81,62.15 -5.41,14.14 1.68,29.99 15.82,35.4 14.14,5.4 30,-1.67 35.41,-15.82 8.12,-21.22 15.79,-43.08 22.81,-65 5.79,-18.1 11.43,-36.76 16.76,-55.47 4.14,-14.56 -4.31,-29.73 -18.87,-33.88 -2.51,-0.71 -5.04,-1.05 -7.53,-1.05 -11.94,0 -22.92,7.86 -26.35,19.92 z m -3550.96,-94.13 c -12.88,7.97 -16.86,24.87 -8.89,37.75 21.96,35.5 45.35,70.88 69.53,105.17 8.73,12.37 25.84,15.33 38.22,6.61 12.38,-8.73 15.33,-25.84 6.61,-38.22 -23.55,-33.39 -46.33,-67.85 -67.72,-102.42 -5.19,-8.38 -14.16,-13 -23.34,-13 -4.93,0 -9.91,1.32 -14.41,4.11 z m 3603.45,-145.7 c -6.62,41.25 -14.28,81.89 -22.74,120.82 -3.22,14.8 6.17,29.4 20.97,32.62 14.76,3.22 29.41,-6.17 32.63,-20.97 8.67,-39.9 16.5,-81.54 23.29,-123.77 2.4,-14.95 -7.77,-29.02 -22.72,-31.42 -1.48,-0.24 -2.94,-0.36 -4.39,-0.36 -13.23,0 -24.87,9.6 -27.04,23.08 z M 3165.93,9116.2 c -13.76,6.33 -19.78,22.62 -13.45,36.37 17.46,37.95 36.38,75.94 56.25,112.9 7.17,13.33 23.79,18.33 37.13,11.17 13.34,-7.16 18.35,-23.79 11.18,-37.13 -19.33,-35.98 -37.75,-72.93 -54.74,-109.86 -4.62,-10.05 -14.55,-15.96 -24.93,-15.96 -3.83,0 -7.73,0.8 -11.44,2.51 z m 3745.81,-169.81 c -2.89,41.69 -6.62,83 -11.07,122.81 -1.69,15.05 9.15,28.62 24.2,30.3 15.08,1.72 28.62,-9.15 30.31,-24.21 4.53,-40.56 8.33,-82.65 11.27,-125.11 1.05,-15.11 -10.35,-28.2 -25.46,-29.25 -0.64,-0.04 -1.29,-0.07 -1.92,-0.07 -14.28,0 -26.33,11.07 -27.33,25.53 z m -3832.07,-63.21 c -14.45,4.55 -22.47,19.95 -17.92,34.4 12.54,39.84 26.56,79.86 41.66,118.95 5.46,14.14 21.34,21.18 35.46,15.7 14.13,-5.46 21.16,-21.34 15.7,-35.47 -14.69,-38 -28.32,-76.92 -40.51,-115.65 -3.68,-11.71 -14.49,-19.19 -26.15,-19.19 -2.72,0 -5.5,0.4 -8.24,1.26 z m 3867.45,-211.1 c -15.14,0.02 -27.4,12.32 -27.38,27.47 l 0.01,6.81 c 0,39.39 -0.61,78.67 -1.83,116.73 -0.48,15.14 11.41,27.8 26.54,28.28 15,0.58 27.8,-11.39 28.28,-26.54 1.23,-38.63 1.85,-78.49 1.85,-118.47 v -6.9 c -0.02,-15.13 -12.3,-27.38 -27.42,-27.38 -0.02,0 -0.03,0 -0.05,0 z m -3923.09,-31.12 c -14.91,2.63 -24.86,16.86 -22.23,31.77 7.25,41.14 16,82.66 25.99,123.42 3.61,14.72 18.46,23.7 33.16,20.11 14.71,-3.6 23.71,-18.45 20.1,-33.16 -9.7,-39.6 -18.19,-79.94 -25.24,-119.9 -2.35,-13.31 -13.92,-22.66 -26.98,-22.66 -1.58,0 -3.19,0.13 -4.8,0.42 z m 3913.61,-217.73 c -15.12,0.9 -26.64,13.89 -25.74,29.01 2.5,41.59 4.42,83.19 5.72,123.63 0.48,15.13 13.14,27.05 28.29,26.53 15.13,-0.49 27.01,-13.15 26.53,-28.29 -1.32,-40.95 -3.27,-83.06 -5.78,-125.15 -0.88,-14.56 -12.95,-25.79 -27.35,-25.79 -0.56,0 -1.11,0.02 -1.67,0.06 z m -3936.67,-29.84 c -15.14,0.61 -26.91,13.37 -26.3,28.5 1.68,41.77 4.82,84.13 9.35,125.9 1.63,15.07 15.18,25.96 30.22,24.31 15.06,-1.63 25.94,-15.16 24.31,-30.21 -4.39,-40.55 -7.45,-81.67 -9.08,-122.2 -0.59,-14.76 -12.74,-26.32 -27.38,-26.32 -0.37,0 -0.75,0.01 -1.12,0.02 z m 3914.16,-218.22 c -15.05,1.66 -25.92,15.2 -24.27,30.25 4.53,41.31 8.58,82.8 12.05,123.3 1.29,15.1 14.54,26.39 29.66,25 15.09,-1.29 26.28,-14.58 24.98,-29.66 -3.5,-40.96 -7.59,-82.88 -12.17,-124.61 -1.54,-14.05 -13.42,-24.44 -27.22,-24.44 -1,0 -2.01,0.06 -3.03,0.16 z m -3933.25,-5.64 c -4.09,41.68 -6.77,84.1 -7.96,126.08 -0.43,15.14 11.49,27.76 26.63,28.19 15.26,0.42 27.77,-11.5 28.19,-26.64 1.16,-40.72 3.76,-81.85 7.72,-122.27 1.48,-15.08 -9.54,-28.5 -24.61,-29.97 -0.92,-0.09 -1.82,-0.14 -2.72,-0.14 -13.93,0 -25.86,10.59 -27.25,24.75 z m 3899.41,-241.12 c -14.97,2.32 -25.23,16.32 -22.92,31.29 6.3,40.81 12.22,82.1 17.6,122.71 1.98,15 15.74,25.49 30.78,23.58 15.02,-1.99 25.57,-15.77 23.59,-30.79 -5.43,-40.99 -11.4,-82.67 -17.77,-123.87 -2.09,-13.55 -13.77,-23.24 -27.07,-23.24 -1.39,0 -2.79,0.1 -4.21,0.32 z m -3857.2,-7.89 c -9.89,40.71 -18.46,82.35 -25.48,123.76 -2.53,14.93 7.52,29.09 22.45,31.62 14.97,2.58 29.09,-7.52 31.62,-22.45 6.81,-40.15 15.12,-80.52 24.7,-119.99 3.58,-14.72 -5.45,-29.55 -20.17,-33.12 -2.18,-0.53 -4.35,-0.78 -6.49,-0.78 -12.36,0 -23.59,8.42 -26.63,20.96 z m 3812.88,-237.25 c -14.86,2.94 -24.51,17.36 -21.57,32.22 7.93,40.07 15.59,81.08 22.77,121.89 2.62,14.91 16.83,24.87 31.76,22.26 14.91,-2.62 24.88,-16.84 22.25,-31.76 -7.24,-41.2 -14.98,-82.59 -22.99,-123.04 -2.58,-13.06 -14.04,-22.1 -26.87,-22.1 -1.76,0 -3.56,0.17 -5.35,0.53 z m -3736.14,-3.36 c -15.54,39 -29.87,79.01 -42.61,118.94 -4.6,14.43 3.37,29.86 17.8,34.46 14.44,4.62 29.85,-3.37 34.45,-17.79 12.35,-38.71 26.25,-77.51 41.31,-115.32 5.6,-14.07 -1.26,-30.02 -15.33,-35.62 -3.33,-1.33 -6.76,-1.95 -10.14,-1.95 -10.9,0 -21.2,6.53 -25.48,17.28 z m 3680.18,-239.59 c -14.66,3.8 -23.47,18.76 -19.68,33.41 3.96,15.31 14.68,57.69 28.62,120.42 3.28,14.78 17.91,24.14 32.71,20.82 14.78,-3.28 24.11,-17.92 20.82,-32.71 -14.11,-63.57 -25.02,-106.68 -29.05,-122.27 -3.2,-12.35 -14.33,-20.55 -26.53,-20.55 -2.27,0 -4.58,0.28 -6.89,0.88 z m -3570.7,12.08 c -20.79,36.54 -40.53,74.18 -58.67,111.84 -6.57,13.65 -0.84,30.04 12.81,36.61 13.64,6.56 30.03,0.83 36.6,-12.82 17.6,-36.54 36.75,-73.05 56.93,-108.51 7.49,-13.16 2.89,-29.91 -10.27,-37.39 -4.28,-2.44 -8.94,-3.6 -13.54,-3.6 -9.54,0 -18.8,4.98 -23.86,13.87 z m 139.24,-210.45 c -25.49,33.48 -50.08,68.11 -73.11,102.89 -8.36,12.63 -4.9,29.65 7.73,38.01 12.63,8.36 29.65,4.89 38,-7.74 22.37,-33.78 46.27,-67.42 71.02,-99.94 9.17,-12.06 6.84,-29.27 -5.22,-38.44 -4.96,-3.77 -10.79,-5.6 -16.58,-5.6 -8.27,0 -16.45,3.73 -21.84,10.82 z m 165.07,-190.59 c -29.51,30.09 -58.27,61.28 -85.5,92.69 -9.92,11.44 -8.68,28.76 2.76,38.68 11.44,9.92 28.76,8.7 38.69,-2.76 26.49,-30.57 54.48,-60.92 83.21,-90.21 10.6,-10.82 10.44,-28.17 -0.38,-38.78 -5.33,-5.24 -12.27,-7.84 -19.2,-7.84 -7.11,0 -14.2,2.74 -19.58,8.22 z m 186.61,-169.21 c -32.82,26.52 -65.02,54.07 -95.73,81.89 -11.22,10.17 -12.07,27.51 -1.9,38.74 10.17,11.21 27.52,12.07 38.73,1.9 29.94,-27.13 61.35,-54 93.37,-79.87 11.78,-9.52 13.61,-26.79 4.09,-38.56 -5.41,-6.71 -13.34,-10.2 -21.34,-10.2 -6.06,0 -12.15,2 -17.22,6.1 z m 203.89,-147.48 c -35.31,22.87 -70.25,46.77 -103.86,71.05 -12.27,8.86 -15.03,26.01 -6.16,38.29 8.86,12.25 26,15.04 38.29,6.16 32.85,-23.73 67.01,-47.1 101.54,-69.45 12.71,-8.24 16.34,-25.21 8.11,-37.93 -5.25,-8.1 -14.06,-12.52 -23.04,-12.52 -5.11,0 -10.28,1.43 -14.88,4.4 z m 218.21,-126 c -17.54,8.62 -34.74,17.55 -51.13,26.5 -20.18,11.05 -40.33,22.41 -59.89,33.76 -13.09,7.61 -17.54,24.39 -9.94,37.49 7.61,13.09 24.39,17.53 37.49,9.94 19.15,-11.12 38.89,-22.24 58.66,-33.06 15.7,-8.59 32.2,-17.14 49.03,-25.43 13.59,-6.69 19.18,-23.13 12.49,-36.72 -4.77,-9.69 -14.5,-15.31 -24.62,-15.31 -4.07,0 -8.19,0.91 -12.09,2.83 z m 234.27,-94.7 c -41.35,13.85 -81.22,28.44 -118.49,43.36 -14.06,5.63 -20.89,21.59 -15.26,35.65 5.63,14.06 21.58,20.89 35.65,15.27 36.3,-14.54 75.16,-28.76 115.52,-42.28 14.36,-4.81 22.1,-20.35 17.29,-34.72 -3.84,-11.47 -14.53,-18.71 -26,-18.71 -2.88,0 -5.82,0.46 -8.71,1.43 z m 241.73,-69.26 c -41.84,10.26 -82.71,21.07 -121.47,32.12 -14.57,4.15 -23.01,19.32 -18.86,33.88 4.15,14.57 19.33,23 33.89,18.86 38.11,-10.86 78.32,-21.49 119.51,-31.6 14.7,-3.61 23.7,-18.46 20.1,-33.16 -3.08,-12.52 -14.28,-20.9 -26.62,-20.9 -2.15,0 -4.36,0.26 -6.55,0.8 z m 245.39,-52.37 c -41.76,7.72 -83.12,15.93 -122.95,24.39 -14.81,3.16 -24.27,17.71 -21.12,32.53 3.14,14.82 17.72,24.25 32.52,21.12 39.36,-8.36 80.24,-16.47 121.52,-24.12 14.9,-2.75 24.74,-17.05 21.98,-31.94 -2.44,-13.21 -13.96,-22.44 -26.93,-22.44 -1.65,0 -3.34,0.15 -5.02,0.46 z m 247.29,-39.97 c -41.8,5.85 -83.46,12.12 -123.84,18.63 -14.95,2.41 -25.11,16.48 -22.71,31.43 2.42,14.96 16.51,25.12 31.44,22.71 40.01,-6.44 81.3,-12.66 122.72,-18.46 14.99,-2.1 25.45,-15.97 23.35,-30.96 -1.92,-13.71 -13.67,-23.63 -27.13,-23.63 -1.26,0 -2.54,0.1 -3.83,0.28 z m 248.49,-30.17 c -41.92,4.3 -83.77,9 -124.38,13.97 -15.03,1.83 -25.74,15.49 -23.91,30.53 1.82,15.04 15.48,25.73 30.52,23.92 40.29,-4.89 81.82,-9.56 123.43,-13.87 15.06,-1.56 26.01,-15.04 24.45,-30.1 -1.47,-14.15 -13.38,-24.65 -27.25,-24.65 -0.94,0 -1.9,0.1 -2.86,0.2 z m 249.31,-21.7 c -41.32,2.9 -83.3,6.2 -124.75,9.8 -15.08,1.3 -26.25,14.6 -24.94,29.72 1.32,15.09 14.57,26.34 29.7,24.94 41.16,-3.58 82.84,-6.87 123.87,-9.79 15.11,-1.07 26.49,-14.18 25.42,-29.27 -1.03,-14.5 -13.07,-25.5 -27.33,-25.5 -0.65,0 -1.31,0 -1.97,0.1 z m 250.83,-13.2 c -0.46,0 -47.6,1.2 -125.84,5.4 -15.12,0.8 -26.72,13.7 -25.9,28.8 0.8,15.14 13.67,26.66 28.85,25.93 77.32,-4.15 123.73,-5.28 124.19,-5.29 15.14,-0.36 27.12,-12.94 26.77,-28.04 -0.36,-15 -12.56,-26.8 -27.41,-26.8 -0.22,0 -0.44,0 -0.66,0"
         style="fill:#87c3c6;fill-opacity:1;fill-rule:nonzero;stroke:none"
         transform="matrix(0.13333333,0,0,-0.13333333,0,2177.7733)" />
      <path
         id="path4"
         d="m 17594.9,3491.1 c 0,0 1533.7,511.2 2422.8,2933.92 965,2629.56 1338.1,4003.78 -1160.9,4510.08 -271.4,71.5 -357.8,281.9 -354.8,568.7 25.4,2401.1 -2454.2,4008.5 -4620.1,2971.6 -275.1,-131.7 -459.8,-239.4 -511.2,-272.3 -1024.2,-654.4 -2235.8,-947.8 -3448.01,-859.6 -1296.34,94.3 -2402.81,-138.3 -2552.13,-2384.2 C 7191.88,8272.08 6179.46,9324.94 4826.5,7799.13 3761.78,6598.39 4714.15,4699.9 5325.68,4202.3 c 1311.39,-1066.9 3022.86,-889 3022.86,-889 l 9246.36,177.8"
         style="fill:#0b303a;fill-opacity:1;fill-rule:nonzero;stroke:none"
         transform="matrix(0.13333333,0,0,-0.13333333,0,2177.7733)" />
      <path
         id="path5"
         d="m 18880.7,10382.4 3.5,1900.2 h 2552.5 l 14.2,-1871.8 -1804.5,-31.9 -748,-833.09 322.6,836.69 -340.3,-0.1"
         style="fill:#ffcc00;fill-opacity:1;fill-rule:nonzero;stroke:none"
         transform="matrix(0.13333333,0,0,-0.13333333,0,2177.7733)" />
      <path
         id="path6"
         d="m 9335.86,9239.62 c -14.07,5.59 -20.94,21.54 -15.35,35.61 7.23,18.19 14.47,36.69 21.74,55.51 5.44,14.13 21.31,21.17 35.45,15.72 14.13,-5.45 21.16,-21.33 15.71,-35.45 -7.33,-19.01 -14.64,-37.69 -21.94,-56.04 -4.27,-10.75 -14.58,-17.3 -25.48,-17.3 -3.37,0 -6.81,0.63 -10.13,1.95 z m -1394.99,-78.49 c -20.07,39.94 -30.9,64.47 -31.36,65.5 -6.1,13.86 0.19,30.04 14.05,36.14 13.86,6.13 30.04,-0.18 36.15,-14.04 0.1,-0.24 10.78,-24.41 30.16,-62.97 6.8,-13.52 1.35,-30.01 -12.18,-36.82 -3.95,-1.98 -8.15,-2.92 -12.29,-2.92 -10.04,0 -19.71,5.54 -24.53,15.11 z m 1339.81,-51.74 c -13.87,6.07 -20.2,22.24 -14.13,36.11 8.95,20.46 18.21,42.18 27.51,64.59 5.81,13.99 21.85,20.6 35.84,14.81 13.99,-5.81 20.62,-21.86 14.81,-35.85 -9.44,-22.71 -18.83,-44.77 -27.91,-65.53 -4.51,-10.3 -14.57,-16.44 -25.14,-16.44 -3.67,0 -7.4,0.75 -10.98,2.31 z m -1271.47,-74.41 c -11.92,20.51 -23.74,41.55 -35.1,62.53 -7.22,13.32 -2.27,29.96 11.05,37.17 13.32,7.22 29.95,2.28 37.17,-11.04 11.11,-20.51 22.65,-41.06 34.29,-61.1 7.61,-13.09 3.17,-29.87 -9.93,-37.49 -4.33,-2.52 -9.07,-3.72 -13.75,-3.72 -9.45,0 -18.64,4.89 -23.73,13.65 z m 1210.32,-53.1 c -13.54,6.79 -19,23.28 -12.21,36.81 10.03,19.96 20.26,41.14 30.42,62.94 6.4,13.73 22.72,19.67 36.43,13.28 13.74,-6.4 19.68,-22.71 13.28,-36.44 -10.38,-22.29 -20.85,-43.96 -31.11,-64.39 -4.82,-9.59 -14.48,-15.13 -24.53,-15.13 -4.14,0 -8.34,0.94 -12.28,2.93 z m -1134.24,-68.62 c -13.12,19.48 -26.27,39.76 -39.07,60.27 -8.01,12.85 -4.1,29.77 8.75,37.78 12.85,8.03 29.76,4.11 37.78,-8.74 12.47,-19.98 25.26,-39.72 38.03,-58.67 8.46,-12.57 5.13,-29.61 -7.43,-38.07 -4.7,-3.16 -10.02,-4.68 -15.29,-4.68 -8.82,0 -17.48,4.24 -22.77,12.11 z m 1064.02,-54.12 c -12.92,7.9 -17.01,24.77 -9.11,37.7 11.58,18.98 23.27,39.21 34.74,60.12 7.29,13.27 23.97,18.14 37.24,10.85 13.27,-7.29 18.13,-23.96 10.85,-37.24 -11.88,-21.65 -24,-42.6 -36.02,-62.3 -5.17,-8.47 -14.19,-13.14 -23.44,-13.14 -4.86,0 -9.8,1.29 -14.26,4.01 z m -978.9,-62 c -14.59,18.17 -29.34,37.43 -43.83,57.24 -8.94,12.23 -6.27,29.38 5.95,38.32 12.23,8.93 29.38,6.28 38.32,-5.95 14,-19.14 28.24,-37.74 42.32,-55.27 9.48,-11.81 7.6,-29.06 -4.21,-38.55 -5.07,-4.06 -11.13,-6.05 -17.15,-6.05 -8.03,0 -15.98,3.52 -21.4,10.26 z m 895.29,-51.92 c -11.8,9.5 -13.67,26.76 -4.17,38.56 13.74,17.08 27.56,35.61 41.04,55.09 8.62,12.44 25.7,15.54 38.16,6.93 12.45,-8.62 15.55,-25.71 6.93,-38.16 -14.23,-20.55 -28.84,-40.15 -43.41,-58.25 -5.42,-6.72 -13.36,-10.23 -21.38,-10.23 -6.03,0 -12.11,1.99 -17.17,6.06 z m -798.56,-55.84 c -16.59,16.32 -33.43,34.01 -50.03,52.58 -10.1,11.29 -9.13,28.63 2.16,38.71 11.29,10.1 28.63,9.13 38.72,-2.16 15.83,-17.69 31.84,-34.52 47.61,-50.02 10.8,-10.62 10.94,-27.98 0.33,-38.78 -5.37,-5.46 -12.46,-8.19 -19.56,-8.19 -6.94,0 -13.88,2.61 -19.23,7.86 z m 696.46,-41.68 c -9.7,11.63 -8.15,28.92 3.48,38.63 16.71,13.96 33.34,29.5 49.43,46.19 10.51,10.91 27.87,11.23 38.78,0.73 10.9,-10.51 11.22,-27.87 0.72,-38.78 -17.46,-18.11 -35.55,-35.01 -53.78,-50.24 -5.13,-4.28 -11.37,-6.37 -17.56,-6.37 -7.85,0 -15.64,3.35 -21.07,9.84 z m -583.92,-51.84 c -19.4,13.15 -39.11,28.1 -58.58,44.41 -11.61,9.72 -13.14,27.02 -3.41,38.64 9.72,11.59 27.02,13.13 38.63,3.4 18.06,-15.12 36.28,-28.95 54.15,-41.08 12.53,-8.5 15.79,-25.55 7.29,-38.08 -5.3,-7.82 -13.93,-12.03 -22.71,-12.03 -5.3,0 -10.66,1.54 -15.37,4.74 z M 8841.01,8578 c -6.35,13.75 -0.34,30.05 13.41,36.39 19.99,9.22 39.69,20.04 58.56,32.14 12.75,8.16 29.71,4.47 37.89,-8.28 8.18,-12.74 4.47,-29.71 -8.28,-37.88 -20.99,-13.46 -42.92,-25.5 -65.19,-35.78 -3.72,-1.71 -7.62,-2.53 -11.47,-2.53 -10.37,0 -20.29,5.91 -24.92,15.94 z m -327.83,-48.2 c -23.01,7.09 -46.43,16.61 -69.61,28.28 -13.53,6.8 -18.98,23.3 -12.16,36.82 6.8,13.53 23.29,18.98 36.82,12.17 20.45,-10.3 41.02,-18.67 61.12,-24.87 14.47,-4.47 22.58,-19.82 18.12,-34.29 -3.64,-11.78 -14.48,-19.34 -26.2,-19.34 -2.68,0 -5.4,0.39 -8.09,1.23 z m 190.9,14.38 c -2.45,14.95 7.68,29.05 22.63,31.49 22.37,3.67 44.34,8.73 65.3,15.05 14.5,4.4 29.8,-3.83 34.17,-18.34 4.37,-14.49 -3.84,-29.79 -18.34,-34.17 -23.23,-7 -47.54,-12.61 -72.26,-16.65 -1.51,-0.25 -3,-0.37 -4.47,-0.37 -13.19,0 -24.83,9.55 -27.03,22.99 z m -91.02,-30.89 c -8.34,0.16 -16.87,0.64 -25.34,1.45 -15.07,1.41 -26.15,14.78 -24.73,29.86 1.41,15.08 14.74,26.17 29.87,24.74 7.12,-0.67 14.28,-1.08 21.29,-1.22 15.43,-0.31 30.7,-0.09 45.46,0.61 15.1,0.7 27.98,-10.97 28.7,-26.09 0.71,-15.13 -10.97,-27.98 -26.09,-28.7 -11.18,-0.53 -22.68,-0.79 -34.19,-0.79 -4.96,0 -9.95,0.04 -14.97,0.14"
         style="fill:#ffffff;fill-opacity:1;fill-rule:nonzero;stroke:none"
         transform="matrix(0.13333333,0,0,-0.13333333,0,2177.7733)" />
      <path
         id="path7"
         d="m 7913,8925.62 54.74,3.34 -17.45,285.61 227.15,-147.28 29.84,46.02 -318.36,206.43 24.08,-394.12"
         style="fill:#ffffff;fill-opacity:1;fill-rule:nonzero;stroke:none"
         transform="matrix(0.13333333,0,0,-0.13333333,0,2177.7733)" />
      <path
         id="path8"
         d="m 16994.3,5029 -7772.53,10.4 c -71.88,-0.2 -113.38,-2.1 -264.31,-99 -150.94,-96.9 -850.78,-681.5 -850.78,-681.5 -36.3,-29.1 57.88,-60.7 129.77,-60.9 l 9703.95,-18.5 c 71.9,-0.1 167.2,32.1 129.8,60.9 l -946.1,727.7 c -37.4,28.8 -57.9,61.1 -129.8,60.8 v 0.1"
         style="fill:#ffffff;fill-opacity:1;fill-rule:nonzero;stroke:none"
         transform="matrix(0.13333333,0,0,-0.13333333,0,2177.7733)" />
      <path
         id="path9"
         d="m 8728.17,4349.9 673.81,525 5374.82,-7.9 916.7,-556.3 -6965.33,39.2"
         style="fill:#87c3c6;fill-opacity:1;fill-rule:nonzero;stroke:none"
         transform="matrix(0.13333333,0,0,-0.13333333,0,2177.7733)" />
      <path
         id="path10"
         d="M 16736.4,9949.89 H 9416.01 c -209.82,0 -379.92,-170.1 -379.92,-379.92 V 5336 c 0,-209.9 170.1,-380 379.92,-380 h 7320.39 c 209.8,0 379.9,170.1 379.9,380 v 4233.97 c 0,209.82 -170.1,379.92 -379.9,379.92"
         style="fill:#ffffff;fill-opacity:1;fill-rule:nonzero;stroke:none"
         transform="matrix(0.13333333,0,0,-0.13333333,0,2177.7733)" />
      <path
         id="path11"
         d="M 9249.51,9458.09 V 5447.8 c 0,-198.7 161.16,-359.8 359.86,-359.8 H 16543 c 198.7,0 359.9,161.1 359.9,359.8 v 4010.29 c 0,198.78 -161.2,359.87 -359.9,359.87 H 9609.37 c -117.45,0 -221.73,-56.26 -287.39,-143.3 -45.52,-60.18 -72.47,-135.24 -72.47,-216.57"
         style="fill:#87c3c6;fill-opacity:1;fill-rule:nonzero;stroke:none"
         transform="matrix(0.13333333,0,0,-0.13333333,0,2177.7733)" />
      <path
         id="path12"
         d="M 9321.98,9674.66 12938.9,5088 h 2862.5 l -4533,4729.96 H 9609.37 c -117.45,0 -221.73,-56.26 -287.39,-143.3"
         style="fill:#c4f2f2;fill-opacity:1;fill-rule:nonzero;stroke:none"
         transform="matrix(0.13333333,0,0,-0.13333333,0,2177.7733)" />
      <path
         id="path13"
         d="m 9249.51,8961.51 v -742.6 L 11242.7,5088 h 698.6 L 9249.51,8961.51"
         style="fill:#c4f2f2;fill-opacity:1;fill-rule:nonzero;stroke:none"
         transform="matrix(0.13333333,0,0,-0.13333333,0,2177.7733)" />
      <path
         id="path14"
         d="m 20552.6,10972.4 c -7,0 -12.9,2.3 -17.6,7 -4.6,4.7 -7,10.5 -7,17.5 v 133.6 c 0,10.9 2.8,19.3 8.2,25.1 5.5,5.9 13.7,12.7 24.6,20.5 l 249.5,164 -249.5,162.8 c -10.1,6.3 -18.1,12.7 -24,19.3 -5.9,6.7 -8.8,15.8 -8.8,27.6 v 132.3 c 0,7.8 2.4,13.8 7,18.2 4.7,4.2 10.6,6.4 17.6,6.4 4.7,0 11,-2.3 18.7,-7 l 427.5,-290.5 c 12.5,-8.6 21.3,-16.4 26.4,-23.4 5.1,-7 7.6,-16 7.6,-26.9 v -37.5 c 0,-11 -2.7,-20.3 -8.2,-28.1 -5.4,-7.9 -14,-15.7 -25.8,-23.5 l -427.5,-290.4 c -7.7,-4.7 -14,-7 -18.7,-7"
         style="fill:#ffffff;fill-opacity:1;fill-rule:nonzero;stroke:none"
         transform="matrix(0.13333333,0,0,-0.13333333,0,2177.7733)" />
      <path
         id="path15"
         d="m 20407.4,10830.6 h -108.9 c -21.1,0 -35.6,9.8 -43.4,29.3 l -398.2,953.4 c -1.5,3.9 -2.3,7.8 -2.3,11.7 0,6.2 2.3,11.9 7,17 4.7,5 10.5,7.6 17.6,7.6 h 111.2 c 20.4,0 34.8,-9.8 43.4,-29.3 l 395.8,-953.4 c 1.6,-3.9 2.4,-7.8 2.4,-11.7 0,-6.2 -2.5,-11.9 -7.6,-17 -5.1,-5 -10.7,-7.6 -17,-7.6"
         style="fill:#ffffff;fill-opacity:1;fill-rule:nonzero;stroke:none"
         transform="matrix(0.13333333,0,0,-0.13333333,0,2177.7733)" />
      <path
         id="path16"
         d="m 19733.9,10972.4 c -4.6,0 -10.9,2.3 -18.7,7 l -427.5,290.4 c -11.7,7.8 -20.3,15.6 -25.7,23.5 -5.5,7.8 -8.2,17.1 -8.2,28.1 v 37.5 c 0,10.9 2.5,19.9 7.6,26.9 5,7 13.8,14.8 26.3,23.4 l 427.5,290.5 c 7.8,4.7 14.1,7 18.7,7 7.1,0 12.9,-2.2 17.6,-6.4 4.7,-4.4 7,-10.4 7,-18.2 v -132.3 c 0,-11.8 -2.9,-20.9 -8.7,-27.6 -5.9,-6.6 -13.9,-13 -24.1,-19.3 l -249.4,-162.8 249.4,-164 c 11,-7.8 19.2,-14.6 24.7,-20.5 5.4,-5.8 8.1,-14.2 8.1,-25.1 v -133.6 c 0,-7 -2.3,-12.8 -7,-17.5 -4.7,-4.7 -10.5,-7 -17.6,-7"
         style="fill:#ffffff;fill-opacity:1;fill-rule:nonzero;stroke:none"
         transform="matrix(0.13333333,0,0,-0.13333333,0,2177.7733)" />
      <path
         id="path17"
         d="m 14408.6,13197.8 c -6.1,13.9 0.2,30.1 14.1,36.1 40.9,18 65.9,27.6 67,28 14.2,5.3 30,-1.8 35.4,-15.9 5.3,-14.2 -1.8,-30 -15.9,-35.4 -0.3,-0.1 -25,-9.5 -64.5,-26.9 -3.6,-1.5 -7.3,-2.3 -11,-2.3 -10.5,0 -20.6,6.1 -25.1,16.4 z m -127.3,-62.5 c -6.9,13.5 -1.6,30 11.8,36.9 21,10.8 42.6,21.5 64.3,31.9 13.7,6.5 30,0.7 36.6,-13 6.5,-13.7 0.7,-30 -13,-36.5 -21.2,-10.2 -42.3,-20.6 -62.8,-31.1 -4,-2.1 -8.3,-3.1 -12.5,-3.1 -9.9,0 -19.5,5.5 -24.4,14.9 z m -123,-70.4 c -7.8,13 -3.6,29.9 9.4,37.7 20.1,12 41,24.1 62.2,35.8 13.2,7.4 29.9,2.6 37.2,-10.6 7.4,-13.3 2.6,-30 -10.6,-37.3 -20.7,-11.4 -41.1,-23.2 -60.6,-34.9 -4.4,-2.7 -9.3,-4 -14.1,-4 -9.3,0 -18.4,4.8 -23.5,13.3 z m -117.2,-79.6 c -8.9,12.3 -6.1,29.4 6.2,38.3 18.9,13.6 38.9,27.3 59.4,40.8 12.7,8.3 29.7,4.7 38,-8 8.3,-12.6 4.7,-29.6 -7.9,-37.9 -19.9,-13 -39.2,-26.3 -57.4,-39.4 -4.9,-3.5 -10.5,-5.2 -16.1,-5.2 -8.5,0 -16.9,4 -22.2,11.4 z m -108.1,-91.5 c -10.3,11.2 -9.5,28.5 1.7,38.7 17.1,15.8 35.7,31.7 55.1,47.3 11.7,9.5 29,7.6 38.5,-4.2 9.5,-11.8 7.6,-29 -4.2,-38.5 -18.4,-14.9 -36.1,-30 -52.4,-45 -5.2,-4.8 -11.9,-7.2 -18.5,-7.2 -7.4,0 -14.8,3 -20.2,8.9 z m -92.3,-107.2 c -12,9.1 -14.4,26.3 -5.3,38.4 14.2,18.7 30.1,37.6 47.4,56.2 10.3,11.1 27.7,11.7 38.8,1.4 11.1,-10.3 11.7,-27.7 1.4,-38.8 -16.1,-17.2 -30.8,-34.7 -43.8,-51.9 -5.4,-7.1 -13.6,-10.9 -21.9,-10.9 -5.8,0 -11.6,1.8 -16.6,5.6 z m -61.8,-126.7 c -14.3,5.2 -21.6,21 -16.3,35.2 8.2,22.6 18.9,45.5 31.8,68 7.5,13.2 24.2,17.8 37.4,10.3 13.2,-7.5 17.7,-24.3 10.2,-37.4 -11.3,-19.9 -20.7,-40 -27.9,-59.8 -4.1,-11.1 -14.6,-18 -25.8,-18 -3.1,0 -6.3,0.6 -9.4,1.7 z m -12.6,-140.4 c -15.1,0.1 -27.4,12.4 -27.3,27.6 0.1,16 0.7,32.5 1.9,49.1 0.6,8.4 1.5,16.8 2.8,25.2 2.2,15 16.1,25.4 31.1,23.2 15,-2.2 25.3,-16.2 23.1,-31.1 -1,-7.1 -1.8,-14.2 -2.3,-21.2 -1.1,-15.4 -1.7,-30.7 -1.8,-45.5 0,-15.1 -12.3,-27.3 -27.4,-27.3 z m -10.6,-119.2 c -5.8,23.6 -10.1,48.2 -12.9,73.1 -1.7,15 9.2,28.6 24.2,30.3 15.1,1.7 28.7,-9.2 30.3,-24.3 2.5,-22.5 6.5,-44.7 11.7,-66 3.6,-14.7 -5.4,-29.5 -20.1,-33.1 -2.2,-0.6 -4.4,-0.9 -6.6,-0.9 -12.3,0 -23.5,8.4 -26.6,20.9 z m 55.1,-137.8 c -12.3,21.7 -23.2,44.2 -32.3,67 -5.7,14 1.2,30 15.2,35.6 14.1,5.7 30.1,-1.2 35.7,-15.2 8.2,-20.5 18,-40.7 29.1,-60.2 7.5,-13.1 2.9,-29.9 -10.3,-37.4 -4.2,-2.4 -8.9,-3.6 -13.5,-3.6 -9.5,0 -18.8,5 -23.9,13.8 z m 88.2,-118.1 c -17.2,18.3 -33.2,37.3 -47.4,56.3 -9.1,12.1 -6.7,29.3 5.4,38.4 12.2,9.1 29.3,6.6 38.4,-5.5 13.1,-17.4 27.8,-34.8 43.6,-51.7 10.4,-11.1 9.8,-28.4 -1.3,-38.8 -5.3,-4.9 -12,-7.4 -18.7,-7.4 -7.3,0 -14.6,2.9 -20,8.7 z m 108.3,-97.4 c -19.8,15.3 -38.6,30.9 -56,46.4 -11.3,10.1 -12.2,27.4 -2.1,38.7 10,11.3 27.4,12.3 38.7,2.2 16.3,-14.6 34.1,-29.4 52.9,-43.9 12,-9.2 14.2,-26.4 4.9,-38.4 -5.4,-7 -13.5,-10.7 -21.7,-10.7 -5.9,0 -11.7,1.9 -16.7,5.7 z m 118.8,-81.6 c -21.1,13 -41.4,26.2 -60.3,39.2 -12.5,8.5 -15.7,25.6 -7.2,38.1 8.6,12.5 25.6,15.7 38.1,7.2 18.3,-12.5 37.9,-25.3 58.3,-37.8 12.9,-8 16.8,-24.9 8.9,-37.8 -5.2,-8.4 -14.2,-13 -23.4,-13 -4.9,0 -9.9,1.3 -14.4,4.1 z m 124.4,-71 c -21.7,11.5 -42.8,23.1 -62.7,34.5 -13.1,7.4 -17.7,24.2 -10.3,37.3 7.5,13.2 24.3,17.8 37.4,10.3 19.5,-11 40.1,-22.3 61.3,-33.6 13.4,-7.1 18.5,-23.7 11.4,-37.1 -4.9,-9.3 -14.4,-14.6 -24.2,-14.6 -4.4,0 -8.8,1.1 -12.9,3.2 z m 127.5,-63.9 c -22,10.5 -43.6,21 -64,31.3 -13.6,6.8 -19,23.2 -12.3,36.8 6.8,13.5 23.3,19 36.8,12.2 20.2,-10.1 41.4,-20.4 63.1,-30.8 13.7,-6.5 19.5,-22.9 12.9,-36.5 -4.7,-9.9 -14.5,-15.7 -24.7,-15.7 -4,0 -8,0.9 -11.8,2.7 z m 129.4,-59.4 -10.2,4.5 c -18.6,8.3 -36.8,16.5 -54.8,24.8 -13.7,6.3 -19.8,22.6 -13.5,36.3 6.4,13.8 22.6,19.8 36.4,13.5 17.8,-8.1 35.8,-16.3 54.2,-24.5 l 9.9,-4.4 c 13.9,-6.1 20.2,-22.2 14.1,-36.1 -4.5,-10.3 -14.6,-16.4 -25.1,-16.4 -3.7,0 -7.5,0.7 -11,2.3 z m 133.8,-52.3 c -23.2,8.1 -45.8,16.4 -67.3,24.8 -14.2,5.5 -21.1,21.4 -15.6,35.5 5.5,14.2 21.4,21.1 35.5,15.6 20.9,-8.1 42.9,-16.3 65.5,-24.1 14.3,-5 21.8,-20.7 16.8,-35 -3.9,-11.3 -14.5,-18.3 -25.9,-18.3 -3,0 -6,0.5 -9,1.5 z m 136.2,-43.4 c -24.2,7.1 -46.5,13.9 -68.3,20.8 -14.4,4.6 -22.4,20 -17.8,34.4 4.5,14.5 19.9,22.5 34.4,17.9 21.4,-6.8 43.3,-13.5 67.1,-20.4 14.5,-4.2 22.9,-19.5 18.6,-34 -3.5,-12 -14.4,-19.8 -26.3,-19.8 -2.5,0 -5.1,0.4 -7.7,1.1 z m 137.2,-37.9 c -22.9,6.1 -45.8,12.2 -68.6,18.5 -14.6,4.1 -23.2,19.2 -19.2,33.8 4,14.5 19.1,23.1 33.7,19.1 22.7,-6.2 45.5,-12.3 68.1,-18.4 14.7,-3.9 23.4,-18.9 19.5,-33.5 -3.3,-12.3 -14.4,-20.4 -26.5,-20.4 -2.3,0 -4.7,0.3 -7,0.9 z m 136.8,-36.2 c -22.7,6.1 -45.5,12.1 -68.3,18.1 -14.7,3.9 -23.4,18.9 -19.6,33.5 3.9,14.7 18.9,23.5 33.6,19.6 22.9,-6.1 45.8,-12.1 68.5,-18.3 14.7,-3.9 23.3,-19 19.4,-33.6 -3.3,-12.2 -14.4,-20.3 -26.5,-20.3 -2.3,0 -4.7,0.3 -7.1,1 z m 135.3,-38.5 c -21.2,6.5 -43.3,12.9 -67.4,19.8 -14.5,4.1 -23,19.2 -18.9,33.8 4.1,14.6 19.3,23 33.9,18.9 24.4,-6.9 46.8,-13.5 68.5,-20.1 14.4,-4.4 22.6,-19.8 18.2,-34.2 -3.6,-11.8 -14.5,-19.4 -26.2,-19.4 -2.7,0 -5.4,0.3 -8.1,1.2 z m 132.4,-45 c -20.9,8 -43,15.9 -65.7,23.6 -14.4,4.8 -22.1,20.4 -17.2,34.7 4.8,14.3 20.4,22 34.7,17.2 23.4,-7.9 46.2,-16 67.7,-24.2 14.1,-5.4 21.2,-21.2 15.8,-35.4 -4.1,-10.9 -14.5,-17.7 -25.6,-17.7 -3.2,0 -6.5,0.6 -9.7,1.8 z m 127,-55.4 c -20,10 -41,19.9 -62.7,29.3 -13.9,6 -20.2,22.2 -14.2,36.1 6,13.8 22.2,20.2 36.1,14.2 22.5,-9.8 44.5,-20.1 65.4,-30.6 13.5,-6.7 19,-23.2 12.2,-36.8 -4.8,-9.5 -14.5,-15.1 -24.5,-15.1 -4.2,0 -8.4,0.9 -12.3,2.9 z m 118.8,-69.3 c -18.6,12.6 -38.2,24.9 -58.2,36.6 -13.1,7.6 -17.5,24.4 -9.9,37.5 7.6,13.1 24.4,17.5 37.5,9.9 21.1,-12.4 41.8,-25.4 61.4,-38.7 12.5,-8.5 15.8,-25.6 7.2,-38.1 -5.3,-7.8 -13.9,-12 -22.6,-12 -5.4,0 -10.7,1.5 -15.4,4.8 z m 107.1,-85.4 c -16.6,15.4 -34,30.5 -51.9,44.7 -11.9,9.4 -13.8,26.7 -4.4,38.5 9.4,11.9 26.7,13.9 38.5,4.4 19,-15.1 37.6,-31.1 55.1,-47.4 11.1,-10.4 11.7,-27.7 1.4,-38.8 -5.4,-5.8 -12.7,-8.7 -20.1,-8.7 -6.6,0 -13.4,2.4 -18.6,7.3 z m 92.6,-100.7 c -14.2,18 -29.1,35.5 -44.4,52.2 -10.2,11.1 -9.5,28.5 1.6,38.7 11.2,10.2 28.5,9.5 38.8,-1.6 16.2,-17.7 32.1,-36.3 47.1,-55.4 9.3,-11.9 7.3,-29.1 -4.6,-38.5 -5,-4 -11,-5.9 -16.9,-5.9 -8.2,0 -16.2,3.6 -21.6,10.5 z m 77,-113.6 c -11.6,19.9 -23.9,39.5 -36.6,58.2 -8.4,12.5 -5.2,29.6 7.4,38.1 12.5,8.4 29.6,5.2 38.1,-7.4 13.3,-19.6 26.2,-40.3 38.5,-61.3 7.6,-13.1 3.2,-29.9 -9.9,-37.5 -4.3,-2.6 -9.1,-3.8 -13.8,-3.8 -9.4,0 -18.6,4.9 -23.7,13.7 z m 60.8,-123.2 c -8.4,20.8 -17.8,41.8 -28.1,62.6 -6.7,13.5 -1.1,30 12.4,36.7 13.6,6.7 30.1,1.2 36.8,-12.4 10.9,-22 20.9,-44.4 29.8,-66.5 5.6,-14 -1.2,-30 -15.3,-35.6 -3.3,-1.4 -6.8,-2 -10.2,-2 -10.8,0 -21.1,6.5 -25.4,17.2 z m 39.4,-130.5 c -4.4,22 -10.1,44.2 -16.7,66.1 -4.4,14.5 3.8,29.8 18.2,34.2 14.5,4.3 29.9,-3.8 34.2,-18.3 7.2,-23.6 13.3,-47.4 18.1,-71 3,-14.9 -6.6,-29.3 -21.4,-32.4 -1.9,-0.3 -3.7,-0.5 -5.5,-0.5 -12.8,0 -24.2,8.9 -26.9,21.9 z m 40.8,-162.4 c -15.1,0.1 -27.3,12.4 -27.3,27.5 v 2.1 c 0,21.7 -1.1,43.9 -3.3,65.7 -1.5,15 9.5,28.5 24.6,30 15,1.6 28.5,-9.5 30,-24.5 2.4,-23.7 3.6,-47.6 3.6,-71.2 v -2.3 c -0.1,-15.1 -12.3,-27.3 -27.4,-27.3 -0.1,0 -0.1,0 -0.2,0 z m -20.6,-139.6 c -14.8,3.1 -24.3,17.7 -21.1,32.5 4.7,22.1 8.3,44.7 10.7,67 1.6,15 15.2,25.8 30.2,24.3 15.1,-1.6 25.9,-15.2 24.3,-30.2 -2.6,-24.2 -6.5,-48.5 -11.6,-72.5 -2.7,-12.9 -14.1,-21.7 -26.8,-21.7 -1.9,0 -3.8,0.1 -5.7,0.6 z m -47.4,-133.1 c -14,5.8 -20.5,21.9 -14.7,35.8 8.9,21.2 16.8,42.7 23.6,64 4.6,14.5 20,22.5 34.4,17.9 14.4,-4.6 22.5,-20 17.9,-34.4 -7.3,-22.9 -15.8,-46 -25.3,-68.7 -4.4,-10.5 -14.6,-16.8 -25.3,-16.8 -3.5,0 -7.1,0.7 -10.6,2.2 z m -69.1,-123.4 c -12.8,8 -16.8,24.9 -8.8,37.7 12.3,19.7 23.7,39.7 34.1,59.6 7,13.5 23.6,18.7 37,11.7 13.4,-7 18.6,-23.6 11.6,-37 -11,-21.2 -23.1,-42.4 -36.1,-63.2 -5.2,-8.4 -14.1,-13 -23.3,-13 -5,0 -10,1.4 -14.5,4.2 z m -85.6,-112.7 c -11.7,9.6 -13.4,26.9 -3.7,38.6 14.7,17.9 28.9,36.3 42.1,54.7 8.9,12.2 26,15 38.3,6.1 12.3,-8.8 15.1,-26 6.2,-38.2 -13.9,-19.3 -28.8,-38.6 -44.3,-57.4 -5.4,-6.7 -13.3,-10.1 -21.2,-10.1 -6.1,0 -12.3,2.1 -17.4,6.3 z m -98,-102.2 c -10.6,10.9 -10.4,28.2 0.4,38.8 16.7,16.3 33,33.1 48.4,49.8 10.2,11.1 27.6,11.8 38.7,1.5 11.2,-10.2 11.9,-27.6 1.6,-38.7 -16,-17.4 -33,-34.8 -50.3,-51.8 -5.4,-5.2 -12.3,-7.8 -19.2,-7.8 -7.1,0 -14.2,2.7 -19.6,8.2 z m -107.7,-91.92 c -9.6,11.8 -7.7,29.02 4.1,38.52 18.1,14.6 36,29.7 53.2,44.9 11.3,10.1 28.6,9 38.7,-2.4 10,-11.3 9,-28.6 -2.4,-38.7 -17.8,-15.7 -36.3,-31.38 -55.1,-46.49 -5.1,-4.07 -11.1,-6.06 -17.2,-6.06 -8,0 -15.9,3.5 -21.3,10.23 z m -116.3,-81.14 c -8.3,12.7 -4.6,29.68 8.1,37.93 18.4,11.94 37.6,25.22 57.1,39.45 12.3,8.93 29.4,6.24 38.3,-6 9,-12.24 6.3,-29.39 -6,-38.31 -20.3,-14.82 -40.3,-28.66 -59.6,-41.15 -4.6,-3 -9.8,-4.42 -14.9,-4.42 -9,0 -17.8,4.4 -23,12.5"
         style="fill:#ffffff;fill-opacity:1;fill-rule:nonzero;stroke:none"
         transform="matrix(0.13333333,0,0,-0.13333333,0,2177.7733)" />
      <path
         id="path18"
         d="m 14361.1,12970.4 222.6,307.2 -394.8,-3.6 0.5,-54.9 286.1,2.7 -158.8,-219.2 44.4,-32.2"
         style="fill:#ffffff;fill-opacity:1;fill-rule:nonzero;stroke:none"
         transform="matrix(0.13333333,0,0,-0.13333333,0,2177.7733)" />
      <path
         id="path19"
         d="m 7977.4,15151.9 c -0.61,15.2 11.16,28 26.3,28.6 22.3,0.9 45.03,1.2 67.16,1.3 19.66,0 39.68,-0.4 59.5,-1.1 15.14,-0.5 26.96,-13.3 26.41,-28.4 -0.56,-15.1 -13.44,-27 -28.41,-26.4 -19.15,0.7 -38.49,1.1 -57.49,1.1 -21.54,0 -43.39,-0.5 -64.97,-1.3 -0.37,-0.1 -0.75,-0.1 -1.12,-0.1 -14.64,0 -26.79,11.6 -27.38,26.3 z m 393.9,-53.8 c -39.88,7.7 -80.57,14 -120.93,18.6 -15.05,1.7 -25.85,15.3 -24.12,30.4 1.72,15 15.38,25.8 30.36,24.1 41.77,-4.8 83.88,-11.3 125.15,-19.3 14.87,-2.9 24.58,-17.3 21.69,-32.1 -2.55,-13.2 -14.03,-22.2 -26.89,-22.2 -1.73,0 -3.49,0.1 -5.26,0.5 z m -640.56,21 c -2.87,14.9 6.86,29.3 21.73,32.1 41.39,8 83.46,14.5 125.04,19.4 15.06,1.7 28.66,-9 30.41,-24.1 1.75,-15 -9.02,-28.6 -24.06,-30.4 -40.23,-4.7 -80.94,-11 -121,-18.7 -1.75,-0.4 -3.5,-0.5 -5.23,-0.5 -12.87,0 -24.36,9.1 -26.89,22.2 z m -239.06,-68.9 c -5.01,14.3 2.51,29.9 16.8,34.9 39.67,14 80.31,26.6 120.77,37.5 14.62,4 29.69,-4.6 33.64,-19.2 3.96,-14.7 -4.68,-29.7 -19.3,-33.7 -39.18,-10.6 -78.52,-22.8 -116.94,-36.3 -3.01,-1.1 -6.07,-1.6 -9.09,-1.6 -11.31,0 -21.91,7.1 -25.88,18.4 z m 1115.25,-17.3 c -38.26,13.9 -77.46,26.4 -116.5,37.1 -14.6,4.1 -23.16,19.2 -19.12,33.8 4.03,14.6 19.14,23.1 33.74,19.1 40.4,-11.2 80.97,-24.1 120.56,-38.5 14.24,-5.1 21.6,-20.8 16.45,-35.1 -4.05,-11.1 -14.57,-18.1 -25.79,-18.1 -3.1,0 -6.26,0.6 -9.34,1.7 z m -1341.83,-85.4 c -7.02,13.4 -1.82,30 11.6,37 37.21,19.5 75.59,37.8 114.07,54.5 13.9,6 30.05,-0.3 36.08,-14.2 6.03,-13.9 -0.34,-30.1 -14.24,-36.1 -37.27,-16.2 -74.45,-33.9 -110.51,-52.8 -4.05,-2.1 -8.4,-3.1 -12.68,-3.1 -9.88,0 -19.43,5.3 -24.32,14.7 z m 1564.72,-15.2 c -35.81,19.6 -72.67,37.9 -109.55,54.5 -13.81,6.3 -19.94,22.5 -13.72,36.3 6.24,13.8 22.48,20 36.28,13.7 38.13,-17.2 76.23,-36.1 113.24,-56.3 13.3,-7.2 18.2,-23.9 10.96,-37.2 -4.98,-9.1 -14.39,-14.3 -24.11,-14.3 -4.43,0 -8.93,1.1 -13.1,3.3 z m -1774.29,-118.8 c -8.86,12.3 -6.09,29.4 6.19,38.3 34.04,24.5 69.4,48.1 105.12,70.2 12.89,7.9 29.78,3.9 37.74,-8.9 7.95,-12.9 3.95,-29.8 -8.94,-37.8 -34.59,-21.3 -68.85,-44.2 -101.83,-68 -4.85,-3.5 -10.46,-5.2 -16.02,-5.2 -8.51,0 -16.9,4 -22.26,11.4 z m 1980.19,-13.5 c -32.77,24.5 -66.62,48 -100.61,69.9 -12.74,8.2 -16.42,25.2 -8.23,37.9 8.19,12.7 25.16,16.4 37.91,8.2 35.06,-22.6 69.97,-46.8 103.77,-72.1 12.13,-9 14.61,-26.2 5.55,-38.3 -5.39,-7.3 -13.64,-11.1 -21.99,-11.1 -5.71,0 -11.48,1.8 -16.4,5.5 z m -2168.31,-149.2 c -10.54,10.9 -10.27,28.2 0.6,38.8 30.1,29.1 61.69,57.6 93.92,84.6 11.61,9.7 28.9,8.2 38.63,-3.4 9.72,-11.6 8.19,-28.9 -3.42,-38.7 -31.22,-26.1 -61.82,-53.7 -90.96,-81.9 -5.33,-5.2 -12.21,-7.7 -19.08,-7.7 -7.16,0 -14.31,2.7 -19.69,8.3 z m 2354.43,-10.3 c -29.42,28.7 -59.86,56.6 -90.47,82.8 -11.5,9.9 -12.83,27.2 -2.96,38.7 9.85,11.5 27.16,12.8 38.67,2.9 31.49,-27 62.81,-55.6 93.06,-85.2 10.84,-10.5 11.05,-27.9 0.48,-38.8 -5.38,-5.5 -12.5,-8.2 -19.63,-8.2 -6.91,0 -13.82,2.6 -19.15,7.8 z m -2516.66,-178.1 c -12.03,9.2 -14.33,26.4 -5.13,38.4 25.42,33.3 52.5,66.1 80.48,97.5 10.08,11.3 27.41,12.3 38.72,2.3 11.31,-10.1 12.32,-27.5 2.25,-38.8 -27.08,-30.4 -53.28,-62.1 -77.88,-94.3 -5.39,-7.1 -13.55,-10.8 -21.8,-10.8 -5.81,0 -11.66,1.9 -16.64,5.7 z m 2681.78,-3.6 c -25.89,32 -52.78,63.4 -79.92,93.3 -10.18,11.2 -9.34,28.5 1.87,38.7 11.21,10.2 28.56,9.4 38.74,-1.9 27.84,-30.6 55.42,-62.8 81.96,-95.6 9.52,-11.8 7.69,-29.1 -4.09,-38.6 -5.07,-4.1 -11.16,-6.1 -17.22,-6.1 -8,0 -15.92,3.5 -21.34,10.2 z m -2813.75,-207 c -13.29,7.3 -18.18,23.9 -10.92,37.2 20.07,36.8 41.88,73.3 64.84,108.5 8.25,12.7 25.25,16.3 37.94,8.1 12.69,-8.3 16.29,-25.3 8.03,-38 -22.19,-34.1 -43.28,-69.4 -62.68,-104.9 -4.98,-9.1 -14.38,-14.3 -24.09,-14.3 -4.44,0 -8.95,1.1 -13.12,3.4 z m 2947.58,3.7 c -20.03,37.6 -40.86,73 -61.9,105.2 -8.27,12.7 -4.7,29.7 7.99,38 12.68,8.2 29.67,4.7 37.95,-8 21.91,-33.6 43.57,-70.4 64.35,-109.4 7.13,-13.4 2.07,-30 -11.29,-37.1 -4.11,-2.2 -8.52,-3.3 -12.88,-3.3 -9.8,0 -19.29,5.3 -24.22,14.6 z m -3045.44,-232.1 c -14.26,5.1 -21.68,20.8 -16.59,35.1 14.14,39.5 30.05,78.9 47.29,117.3 6.21,13.9 22.44,20 36.25,13.8 13.82,-6.2 19.99,-22.4 13.78,-36.2 -16.66,-37.1 -32.03,-75.3 -45.67,-113.4 -4.01,-11.2 -14.57,-18.2 -25.83,-18.2 -3.06,0 -6.18,0.5 -9.23,1.6 z m 3146.86,8.2 c -15.38,39.5 -31.36,77.8 -47.49,113.6 -6.21,13.8 -0.06,30.1 13.75,36.3 13.82,6.2 30.05,0.1 36.27,-13.8 16.52,-36.7 32.87,-75.8 48.59,-116.3 5.48,-14.1 -1.52,-30 -15.63,-35.5 -3.27,-1.2 -6.62,-1.8 -9.93,-1.8 -10.98,0 -21.35,6.6 -25.56,17.5 z M 6414.5,13782.4 c -14.89,2.8 -24.69,17.1 -21.88,32 7.76,41.3 17.27,82.8 28.25,123.3 3.96,14.7 19.03,23.3 33.64,19.3 14.62,-3.9 23.26,-19 19.29,-33.6 -10.6,-39.2 -19.78,-79.2 -27.29,-119.1 -2.47,-13.2 -13.98,-22.4 -26.92,-22.4 -1.67,0 -3.38,0.2 -5.09,0.5 z m 3287.61,15.3 c -12.19,40.5 -24.88,80.1 -37.73,117.8 -4.88,14.4 2.79,29.9 17.12,34.8 14.34,4.9 29.92,-2.8 34.8,-17.1 13.05,-38.3 25.94,-78.6 38.32,-119.6 4.37,-14.5 -3.83,-29.8 -18.33,-34.2 -2.64,-0.8 -5.31,-1.2 -7.93,-1.2 -11.78,0 -22.67,7.7 -26.25,19.5 z m 64.65,-239.3 c -9.89,40.9 -20.22,81.3 -30.7,120.2 -3.94,14.7 4.72,29.7 19.35,33.6 14.62,4 29.67,-4.7 33.61,-19.3 10.6,-39.4 21.05,-80.3 31.04,-121.6 3.56,-14.7 -5.48,-29.6 -20.2,-33.1 -2.17,-0.5 -4.34,-0.8 -6.47,-0.8 -12.37,0 -23.6,8.4 -26.63,21 z m -3374.85,-23.6 c -15.14,0.5 -27.03,13.2 -26.56,28.3 1.31,42.1 4.25,84.6 8.76,126.2 1.63,15 15.24,26 30.21,24.3 15.06,-1.7 25.94,-15.2 24.31,-30.2 -4.35,-40.2 -7.19,-81.3 -8.46,-122 -0.46,-14.8 -12.65,-26.6 -27.39,-26.6 -0.29,0 -0.58,0 -0.87,0 z M 9819.73,13316 c -8.1,41.1 -16.59,82 -25.21,121.6 -3.23,14.8 6.14,29.4 20.94,32.6 14.79,3.2 29.41,-6.1 32.64,-20.9 8.71,-40 17.27,-81.2 25.44,-122.7 2.93,-14.8 -6.74,-29.2 -21.6,-32.2 -1.79,-0.3 -3.57,-0.5 -5.33,-0.5 -12.84,0 -24.3,9 -26.88,22.1 z m -3443.4,-5.4 c -4.9,41.9 -8.31,84.3 -10.14,126 -0.67,15.2 11.06,28 26.19,28.6 15.15,0.5 27.94,-11.1 28.6,-26.2 1.77,-40.3 5.08,-81.4 9.82,-122 1.76,-15.1 -9.01,-28.7 -24.05,-30.4 -1.08,-0.2 -2.16,-0.2 -3.22,-0.2 -13.72,0 -25.57,10.2 -27.2,24.2 z m 3487.08,-239.1 c -6.65,41.2 -13.64,82.4 -20.78,122.5 -2.66,14.9 7.27,29.1 22.18,31.8 14.92,2.6 29.16,-7.3 31.82,-22.2 7.19,-40.3 14.23,-81.9 20.93,-123.4 2.41,-15 -7.76,-29 -22.71,-31.4 -1.48,-0.3 -2.95,-0.4 -4.4,-0.4 -13.22,0 -24.87,9.6 -27.04,23.1 z m -3440.55,-9 c -10.55,40.9 -19.79,82.4 -27.48,123.2 -2.8,14.9 6.99,29.2 21.88,32 14.88,2.9 29.21,-7 32.02,-21.8 7.46,-39.7 16.44,-80 26.68,-119.7 3.79,-14.7 -5.04,-29.6 -19.71,-33.4 -2.29,-0.6 -4.59,-0.9 -6.86,-0.9 -12.21,0 -23.35,8.2 -26.53,20.6 z m 78.02,-239.7 c -15.46,39.3 -29.82,79.2 -42.66,118.6 -4.7,14.4 3.17,29.9 17.56,34.5 14.4,4.7 29.88,-3.1 34.58,-17.5 12.51,-38.4 26.5,-77.3 41.56,-115.6 5.55,-14.1 -1.39,-30 -15.48,-35.5 -3.3,-1.3 -6.69,-1.9 -10.03,-1.9 -10.94,0 -21.28,6.5 -25.53,17.4 z m 3398.32,2.6 c -5.38,41.3 -11.09,82.7 -16.97,123.2 -2.18,15 8.2,28.9 23.19,31.1 14.99,2.2 28.91,-8.2 31.08,-23.2 5.93,-40.7 11.67,-82.5 17.08,-124 1.96,-15 -8.63,-28.7 -23.64,-30.7 -1.21,-0.2 -2.4,-0.2 -3.58,-0.2 -13.57,0 -25.36,10 -27.16,23.8 z m -3293.4,-231.5 c -19.6,37.4 -38.29,75.4 -55.54,113 -6.31,13.7 -0.28,30 13.48,36.3 13.76,6.4 30.04,0.3 36.36,-13.4 16.86,-36.8 35.12,-73.9 54.28,-110.4 7.03,-13.5 1.85,-30 -11.57,-37.1 -4.06,-2.1 -8.41,-3.1 -12.7,-3.1 -9.88,0 -19.41,5.4 -24.31,14.7 z m 3322.03,-15.5 c -4.16,40.9 -8.68,82.5 -13.45,123.6 -1.74,15.1 9.04,28.7 24.09,30.4 15.01,1.7 28.65,-9 30.39,-24.1 4.8,-41.3 9.35,-83.2 13.53,-124.4 1.53,-15.1 -9.45,-28.5 -24.51,-30 -0.94,-0.1 -1.87,-0.2 -2.81,-0.2 -13.89,0 -25.81,10.6 -27.24,24.7 z m -3194.68,-201.3 c -23.03,35.4 -45.31,71.3 -66.22,106.8 -7.68,13.1 -3.32,29.9 9.73,37.6 13.05,7.7 29.86,3.3 37.54,-9.7 20.49,-34.9 42.32,-70.1 64.9,-104.8 8.27,-12.6 4.68,-29.6 -8.01,-37.9 -4.62,-3 -9.81,-4.5 -14.94,-4.5 -8.96,0 -17.75,4.4 -23,12.5 z m 3215.67,-46.8 c -0.02,0.5 -2.72,46.6 -9.38,124.2 -1.3,15.1 9.89,28.4 24.98,29.7 15.04,1.3 28.37,-9.9 29.67,-25 6.71,-78.5 9.41,-125.3 9.51,-125.7 0.8,-15.1 -10.7,-28.1 -25.82,-29 -0.54,0 -1.07,0 -1.6,0 -14.42,0 -26.51,11.2 -27.36,25.8"
         style="fill:#87c3c6;fill-opacity:1;fill-rule:nonzero;stroke:none"
         transform="matrix(0.13333333,0,0,-0.13333333,0,2177.7733)" />
      <path
         id="path20"
         d="m 6816.72,12293.6 -46.88,763 -54.74,-3.4 39.56,-643.7 -600.73,455.1 -33.12,-43.8 695.91,-527.2"
         style="fill:#87c3c6;fill-opacity:1;fill-rule:nonzero;stroke:none"
         transform="matrix(0.13333333,0,0,-0.13333333,0,2177.7733)" />
      <path
         id="path21"
         d="M 11906.4,12725.2 H 8361.41 c -73.78,0 -133.59,-59.8 -133.59,-133.6 v -2088.8 c 0,-73.8 59.81,-133.6 133.59,-133.6 h 3544.99 c 73.8,0 133.6,59.8 133.6,133.6 v 2088.8 c 0,73.8 -59.8,133.6 -133.6,133.6"
         style="fill:#ffffff;fill-opacity:1;fill-rule:nonzero;stroke:none"
         transform="matrix(0.13333333,0,0,-0.13333333,0,2177.7733)" />
      <path
         id="path22"
         d="M 12073.1,12825.3 H 8256.09 c -73.78,0 -133.59,-59.9 -133.59,-133.6 v -460.8 c 0,-73.8 59.81,-133.6 133.59,-133.6 h 3817.01 c 73.8,0 133.6,59.8 133.6,133.6 v 460.8 c 0,73.7 -59.8,133.6 -133.6,133.6"
         style="fill:#ffdd55;fill-opacity:1;fill-rule:nonzero;stroke:none"
         transform="matrix(0.13333333,0,0,-0.13333333,0,2177.7733)" />
      <path
         id="path23"
         d="m 11703.8,12578 c -87.5,0 -158.4,-70.9 -158.4,-158.4 0,-87.4 70.9,-158.3 158.4,-158.3 87.5,0 158.4,70.9 158.4,158.3 0,87.5 -70.9,158.4 -158.4,158.4"
         style="fill:#0b383d;fill-opacity:1;fill-rule:nonzero;stroke:none"
         transform="matrix(0.13333333,0,0,-0.13333333,0,2177.7733)" />
      <path
         id="path24"
         d="m 11228.7,12575.2 c -87.5,0 -158.4,-70.9 -158.4,-158.4 0,-87.4 70.9,-158.3 158.4,-158.3 87.5,0 158.4,70.9 158.4,158.3 0,87.5 -70.9,158.4 -158.4,158.4"
         style="fill:#0b383d;fill-opacity:1;fill-rule:nonzero;stroke:none"
         transform="matrix(0.13333333,0,0,-0.13333333,0,2177.7733)" />
      <path
         id="path25"
         d="m 10742.5,12566.9 c -87.5,0 -158.4,-70.9 -158.4,-158.4 0,-87.5 70.9,-158.4 158.4,-158.4 87.5,0 158.4,70.9 158.4,158.4 0,87.5 -70.9,158.4 -158.4,158.4"
         style="fill:#0b383d;fill-opacity:1;fill-rule:nonzero;stroke:none"
         transform="matrix(0.13333333,0,0,-0.13333333,0,2177.7733)" />
      <path
         id="path26"
         d="M 11684.4,11813.9 H 8639.27 c -64.45,0 -116.69,-52.2 -116.69,-116.6 v 0 c 0,-64.5 52.24,-116.7 116.69,-116.7 h 3045.13 c 64.4,0 116.6,52.2 116.6,116.7 v 0 c 0,64.4 -52.2,116.6 -116.6,116.6"
         style="fill:#87c3c6;fill-opacity:1;fill-rule:nonzero;stroke:none"
         transform="matrix(0.13333333,0,0,-0.13333333,0,2177.7733)" />
      <path
         id="path27"
         d="M 11689.9,11236 H 8644.82 c -64.44,0 -116.69,-52.2 -116.69,-116.7 v 0 c 0,-64.4 52.25,-116.6 116.69,-116.6 h 3045.08 c 64.5,0 116.7,52.2 116.7,116.6 v 0 c 0,64.5 -52.2,116.7 -116.7,116.7"
         style="fill:#87c3c6;fill-opacity:1;fill-rule:nonzero;stroke:none"
         transform="matrix(0.13333333,0,0,-0.13333333,0,2177.7733)" />
      <path
         id="path28"
         d="m 7980.7,5376.3 c 0,0 117.88,-1041.2 -157.16,-1115.9 -275.05,-74.6 -611.68,-86.8 -915.51,7.9 -149.58,46.6 -123.33,743.8 -106.09,1100.2 l 1178.76,7.8"
         style="fill:#ffffff;fill-opacity:1;fill-rule:nonzero;stroke:none"
         transform="matrix(0.13333333,0,0,-0.13333333,0,2177.7733)" />
      <path
         id="path29"
         d="m 7640.44,5379.2 c 0,0 227.83,194.5 322.3,605.7 94.46,411.16 -122.25,516.74 -188.93,311.1 -66.68,-205.6 -155.59,-700.1 -183.38,-516.7 -27.78,183.3 174.65,1257.56 87.85,1660.7 -86.81,403.14 -365.84,415.44 -410.14,11.84 -44.29,-403.59 333.41,-1589.24 222.27,-1617.04 -111.13,-27.8 -44.29,658.16 -266.56,641.5 -222.27,-16.68 -125.36,-274.2 -70.52,-509.3 54.85,-235 192.61,-582.3 192.61,-582.3 l 294.5,-5.5"
         style="fill:#ffcc00;fill-opacity:1;fill-rule:nonzero;stroke:none"
         transform="matrix(0.13333333,0,0,-0.13333333,0,2177.7733)" />
      <path
         id="path30"
         d="m 7162.57,5379.2 c 0,0 -111.23,809.1 -222.27,1077.99 -105.58,255.61 -466.76,427.87 -294.51,-88.91 172.26,-516.78 44.45,-316.78 -66.68,-200.08 -111.14,116.7 -305.62,44.5 -77.79,-161.1 227.82,-205.6 394.52,-644.6 394.52,-644.6 l 266.73,16.7"
         style="fill:#ffcc00;fill-opacity:1;fill-rule:nonzero;stroke:none"
         transform="matrix(0.13333333,0,0,-0.13333333,0,2177.7733)" />
      <path
         id="path31"
         d="m 4362.86,4665.7 c 119.4,-237 -246.33,-464.9 183.22,-712.8 429.55,-247.9 826.36,-30.9 826.36,-30.9 0,0 -322.89,-5.7 -570,185.4 -247.12,191.1 33.69,734.7 -221.81,921.7 -255.51,187 -727.55,94 -775.99,-84.4 -48.43,-178.4 514.71,-263.7 558.22,-279 v 0"
         style="fill:#87c3c6;fill-opacity:1;fill-rule:nonzero;stroke:none"
         transform="matrix(0.13333333,0,0,-0.13333333,0,2177.7733)" />
      <path
         id="path32"
         d="m 12190.9,14453.1 c 26.1,22.5 395,235.8 312.5,346.8 -82.5,111 -436.7,46.8 -563.5,-153.3 -126.8,-200.1 217.4,-501.9 97.5,-702.5 -119.9,-200.6 -346.3,-284.9 -346.3,-284.9 0,0 335.7,-42.7 567.1,247.4 231.3,290 -85.7,348.7 -67.3,546.5 v 0"
         style="fill:#87c3c6;fill-opacity:1;fill-rule:nonzero;stroke:none"
         transform="matrix(0.13333333,0,0,-0.13333333,0,2177.7733)" />
      <path
         id="path33"
         d="m 19966.1,8251.15 c -8.4,-19.06 -324.1,-710.35 -324.1,-710.35 l -388.8,262.2 368.2,603.74 344.7,-155.59"
         style="fill:#158e9b;fill-opacity:1;fill-rule:nonzero;stroke:none"
         transform="matrix(0.13333333,0,0,-0.13333333,0,2177.7733)" />
      <path
         id="path34"
         d="m 19644.7,8224.94 -241.5,-661.11 -400.9,191.68 363.6,696.74 278.8,-227.31"
         style="fill:#ffdd4d;fill-opacity:1;fill-rule:nonzero;stroke:none"
         transform="matrix(0.13333333,0,0,-0.13333333,0,2177.7733)" />
      <path
         id="path35"
         d="m 12965.7,13411.4 c 3.7,13.4 146.4,499.6 146.4,499.6 l 281.5,-136.1 -185.6,-433.4 -242.3,69.9"
         style="fill:#158e9b;fill-opacity:1;fill-rule:nonzero;stroke:none"
         transform="matrix(0.13333333,0,0,-0.13333333,0,2177.7733)" />
      <path
         id="path36"
         d="m 13175.3,13459.3 96.6,459.2 282.7,-88.4 -173.7,-494.3 -205.6,123.5"
         style="fill:#ffdd4d;fill-opacity:1;fill-rule:nonzero;stroke:none"
         transform="matrix(0.13333333,0,0,-0.13333333,0,2177.7733)" />
      <path
         id="path37"
         d="m 13421.3,9101.84 h 3141.9 c 15.1,0 27.4,12.28 27.4,27.42 0,15.15 -12.3,27.42 -27.4,27.42 h -3141.9 c -15.1,0 -27.4,-12.27 -27.4,-27.42 0,-15.14 12.3,-27.42 27.4,-27.42"
         style="fill:#0b383d;fill-opacity:1;fill-rule:nonzero;stroke:none"
         transform="matrix(0.13333333,0,0,-0.13333333,0,2177.7733)" />
      <path
         id="path38"
         d="m 13417.4,8674.83 h 1386.8 c 15.2,0 27.4,12.27 27.4,27.42 0,15.15 -12.2,27.42 -27.4,27.42 h -1386.8 c -15.1,0 -27.4,-12.27 -27.4,-27.42 0,-15.15 12.3,-27.42 27.4,-27.42"
         style="fill:#0b383d;fill-opacity:1;fill-rule:nonzero;stroke:none"
         transform="matrix(0.13333333,0,0,-0.13333333,0,2177.7733)" />
      <path
         id="path39"
         d="m 15307,8674.83 h 498.8 c 15.1,0 27.4,12.27 27.4,27.42 0,15.15 -12.3,27.42 -27.4,27.42 H 15307 c -15.2,0 -27.5,-12.27 -27.5,-27.42 0,-15.15 12.3,-27.42 27.5,-27.42"
         style="fill:#0b383d;fill-opacity:1;fill-rule:nonzero;stroke:none"
         transform="matrix(0.13333333,0,0,-0.13333333,0,2177.7733)" />
      <path
         id="path40"
         d="m 15988.6,8674.83 h 570.7 c 15.1,0 27.4,12.27 27.4,27.42 0,15.15 -12.3,27.42 -27.4,27.42 h -570.7 c -15.1,0 -27.4,-12.27 -27.4,-27.42 0,-15.15 12.3,-27.42 27.4,-27.42"
         style="fill:#0b383d;fill-opacity:1;fill-rule:nonzero;stroke:none"
         transform="matrix(0.13333333,0,0,-0.13333333,0,2177.7733)" />
      <path
         id="path41"
         d="m 13433.1,8283.08 h 1723.7 c 15.1,0 27.4,12.28 27.4,27.42 0,15.15 -12.3,27.42 -27.4,27.42 h -1723.7 c -15.2,0 -27.4,-12.27 -27.4,-27.42 0,-15.14 12.2,-27.42 27.4,-27.42"
         style="fill:#0b383d;fill-opacity:1;fill-rule:nonzero;stroke:none"
         transform="matrix(0.13333333,0,0,-0.13333333,0,2177.7733)" />
      <path
         id="path42"
         d="m 15325.2,8283.08 h 1249.7 c 15.2,0 27.4,12.28 27.4,27.42 0,15.15 -12.2,27.42 -27.4,27.42 h -1249.7 c -15.1,0 -27.4,-12.27 -27.4,-27.42 0,-15.14 12.3,-27.42 27.4,-27.42"
         style="fill:#0b383d;fill-opacity:1;fill-rule:nonzero;stroke:none"
         transform="matrix(0.13333333,0,0,-0.13333333,0,2177.7733)" />
      <path
         id="path43"
         d="m 20828.6,1749.1 c -109.4,-444.7 -403.6,-766.202 -540.4,-766.202 -19.6,0 -33.1,8.704 -41.8,24.302 -52.1,92.6 63.2,426.4 28.2,584.6 -41.1,184.6 -191.6,342 -882.5,526.7 -314.2,84 -545.1,152.6 -672.6,234.6 h -0.1 c -76.1,49 -115.3,102.6 -113.4,167.1 2,65.1 45.9,141.1 136.2,234.4 190.1,196.6 732,383.1 1176.6,191.6 42.7,-18.4 86.6,-40.2 131,-65 14,-7.8 28,-15.9 42,-24.2 v -0.1 c 58.4,-34.8 117.3,-74.5 175,-118.2 112.3,-85 220,-184.7 311.3,-292.1 44.7,-52.7 85.5,-107.1 120.9,-162.6 113.1,-177.1 171.6,-364.6 129.6,-534.9"
         style="fill:#007082;fill-opacity:1;fill-rule:nonzero;stroke:none"
         transform="matrix(0.13333333,0,0,-0.13333333,0,2177.7733)" />
      <path
         id="path44"
         d="m 20699,2284 c -142.6,-55.1 -368.2,-91 -620.8,61.7 -114.5,69.2 -162.5,146.2 -171.5,221.9 -14.2,120 69.9,236.6 143.1,313.6 12.4,12.9 24.5,24.7 35.7,35.4 1.8,-11 3.2,-21.7 4.3,-32 1,-9.3 1.7,-18.6 2,-27.6 v -0.1 c 58.4,-34.8 117.3,-74.5 175,-118.2 -32,-78.5 -44.6,-183.1 48.5,-269.7 88.6,-82.5 187.2,-62.2 262.8,-22.4 44.7,-52.7 85.5,-107.1 120.9,-162.6"
         style="fill:#ffcc00;fill-opacity:1;fill-rule:nonzero;stroke:none"
         transform="matrix(0.13333333,0,0,-0.13333333,0,2177.7733)" />
      <path
         id="path45"
         d="m 20493.7,1550.5 c -38.1,-145.6 -160.3,-383.9 -247.3,-543.3 -52.1,92.6 63.2,426.4 28.2,584.6 -41.1,184.6 -191.6,342 -882.5,526.7 -314.2,84 -545.1,152.6 -672.6,234.6 h -0.1 c -76.1,49 -115.3,102.6 -113.4,167.1 l 543.6,84.4 c 0,0 390.4,-178.4 730.6,-345.8 340.2,-167.3 674.9,-474 613.5,-708.3"
         style="fill:#158e9b;fill-opacity:1;fill-rule:nonzero;stroke:none"
         transform="matrix(0.13333333,0,0,-0.13333333,0,2177.7733)" />
      <path
         id="path46"
         d="m 18240.4,5063.1 -1411.1,-62.7 c 0,0 -0.2,14.5 1.2,42.5 5.5,110.6 37.4,432.5 218.4,908.7 198.5,522.54 442.3,932.63 188.1,1139.16 -70.3,57.11 -251.7,43.66 -460.5,17.62 -340.7,-42.44 -754.2,-118.35 -877.4,24.2 -198.5,229.95 -0.3,266.81 334.5,522.58 801,611.98 1385.2,506.18 1661.8,83.6 175.5,-268.03 186.7,-488 131.3,-893.06 -10,-72.9 -22.1,-151.87 -35.9,-238.21 -25.3,-158.94 -56.1,-342.89 -88.7,-560.29 -5.6,-37.9 -11.4,-76.7 -17.1,-116.5 -8.7,-59.9 -14,-115.8 -16.5,-167.8 -30.4,-639.1 371.9,-699.8 371.9,-699.8"
         style="fill:#007082;fill-opacity:1;fill-rule:nonzero;stroke:none"
         transform="matrix(0.13333333,0,0,-0.13333333,0,2177.7733)" />
      <path
         id="path47"
         d="m 19249.5,3966 c -360.1,-27.1 -2460.6,-124.9 -3416.7,-26.5 -46.3,144 -7,752.7 297.2,1020.6 13.3,11.8 27.1,22.9 41.5,33.3 264.8,191 2421.5,183.6 2648.9,31.5 0.5,-0.3 1.1,-0.6 1.6,-1 416.2,-291.5 565.6,-1047.5 427.5,-1057.9"
         style="fill:#007082;fill-opacity:1;fill-rule:nonzero;stroke:none"
         transform="matrix(0.13333333,0,0,-0.13333333,0,2177.7733)" />
      <path
         id="path48"
         d="m 17455.7,6586.69 c -195.2,-501.89 -379.2,-1271.59 -345.8,-1450.09 17.4,-92.5 -131.8,-104.1 -279.4,-93.7 5.5,110.6 37.4,432.5 218.4,908.7 198.5,522.54 442.3,932.63 188.1,1139.16 -70.3,57.11 -251.7,43.66 -460.5,17.62 93.7,50.25 281,127.94 405.9,102.95 167.3,-33.46 468.5,-122.69 273.3,-624.64"
         style="fill:#158e9b;fill-opacity:1;fill-rule:nonzero;stroke:none"
         transform="matrix(0.13333333,0,0,-0.13333333,0,2177.7733)" />
      <path
         id="path49"
         d="m 19906.7,2567.6 c -192,-108.4 -538.5,-170.6 -1061.9,-206.3 -39.2,-2.6 -81,-5.4 -125.3,-8.2 h -0.1 c -463.9,-28.8 -1194,-60.4 -1868.8,-50.3 -103.7,1.6 -206.1,4.1 -306,7.8 -280.5,10.4 -541.6,29.8 -757.2,61.8 -74.7,11 -143.9,23.6 -206.6,37.9 -156,35.4 -271.7,81 -330.8,139.2 -127.3,125.2 -78.2,449.5 2.2,734.9 19.8,70.5 41.5,138.5 62.9,200.6 l 0.1,0.4 c 28.5,82.4 56.4,154.3 78.7,207.3 8.9,21.2 16.9,39.3 23.7,53.9 43.8,94.2 148.8,143.8 244.3,169.8 66.6,18.1 128.4,24.8 161.5,27.2 15.9,1.2 25.2,1.4 25.2,1.4 0,0 1158.1,29.6 2168.9,41.5 40.1,0.5 79.8,0.9 119.3,1.3 132.6,1.4 261.7,2.5 384.1,3 251.2,1.2 474.8,0.5 644,-3.2 177,-3.8 294.7,-10.8 322.9,-22.1 14,-5.6 29.4,-15.3 46,-28.6 48.6,-38.9 107.4,-108.7 168.3,-195.8 165.4,-236.6 346.6,-601.5 383.4,-824.5 1.8,-11 3.2,-21.7 4.3,-32 1,-9.3 1.7,-18.6 2,-27.6 v -0.1 c 3.9,-121.7 -55.4,-216 -185.1,-289.3"
         style="fill:#007082;fill-opacity:1;fill-rule:nonzero;stroke:none"
         transform="matrix(0.13333333,0,0,-0.13333333,0,2177.7733)" />
      <path
         id="path50"
         d="m 18553.7,4755.1 c 0,0 13.7,-154 133.4,-109.5 119.7,44.5 225.8,260 71.8,260 -153.9,0 -225.7,-30.8 -205.2,-150.5 v 0"
         style="fill:#ffe680;fill-opacity:1;fill-rule:nonzero;stroke:none"
         transform="matrix(0.13333333,0,0,-0.13333333,0,2177.7733)" />
      <path
         id="path51"
         d="m 17362.2,3296.4 c -48.6,-52.9 -101.7,-307 162.4,-292 132.3,7.4 242.8,198.3 95.7,294.1 -101.1,65.8 -199,62.2 -258.1,-2.1"
         style="fill:#ffe680;fill-opacity:1;fill-rule:nonzero;stroke:none"
         transform="matrix(0.13333333,0,0,-0.13333333,0,2177.7733)" />
      <path
         id="path52"
         d="m 16850.6,2302.8 c -103.7,1.6 -206.1,4.1 -306,7.8 -37.4,78.9 -92.5,158.6 -172.7,208.1 -205.2,126.5 -437.8,181.2 -554.1,-75.3 -11.8,-25.9 -21.8,-49.5 -30.4,-71 -74.7,11 -143.9,23.6 -206.6,37.9 53.5,177.3 223.2,615.2 589.3,590.6 380.1,-25.5 616.7,-453.3 680.5,-698.1"
         style="fill:#ffcc00;fill-opacity:1;fill-rule:nonzero;stroke:none"
         transform="matrix(0.13333333,0,0,-0.13333333,0,2177.7733)" />
      <path
         id="path53"
         d="m 19702.1,3741.1 c -351.3,-151.3 -1037.7,-104.7 -2192.1,-132.6 -638.5,-15.4 -1876.6,42.3 -2116.1,84.2 8.9,21.2 16.9,39.3 23.7,53.9 43.8,94.2 148.8,143.8 244.3,169.8 66.6,18.1 128.4,24.8 161.5,27.2 15.9,1.2 25.2,1.4 25.2,1.4 0,0 1158.1,29.6 2168.9,41.5 40.1,0.5 79.8,0.9 119.3,1.3 132.6,1.4 261.7,2.5 384.1,3 251.2,1.2 474.8,0.5 644,-3.2 177,-3.8 294.7,-10.8 322.9,-22.1 14,-5.6 29.4,-15.3 46,-28.6 48.6,-38.9 107.4,-108.7 168.3,-195.8"
         style="fill:#158e9b;fill-opacity:1;fill-rule:nonzero;stroke:none"
         transform="matrix(0.13333333,0,0,-0.13333333,0,2177.7733)" />
      <path
         id="path54"
         d="m 15817.8,3390.9 c -164,-139.3 -413.7,-129.6 -565.6,-106.5 l 62.9,200.6 0.1,0.4 c 91.3,-26.3 207.2,-44.4 273.4,4.6 197,146.2 138.7,321.2 73.3,426.4 66.6,18.1 128.4,24.8 161.5,27.2 66.7,-119.4 185,-390.9 -5.6,-552.7"
         style="fill:#ffcc00;fill-opacity:1;fill-rule:nonzero;stroke:none"
         transform="matrix(0.13333333,0,0,-0.13333333,0,2177.7733)" />
      <path
         id="path55"
         d="m 19533.8,3936.9 c -21.7,-268.6 -127.2,-833.3 -627.4,-918.9 -562.2,-96 -823.6,723.1 -888.9,968.5 40.1,0.5 79.8,0.9 119.3,1.3 132.6,1.4 261.7,2.5 384.1,3 2.8,-175 48.1,-542.5 378.7,-555.5 327.7,-12.9 299.1,365.7 265.3,552.3 177,-3.8 294.7,-10.8 322.9,-22.1 14,-5.6 29.4,-15.3 46,-28.6"
         style="fill:#ffcc00;fill-opacity:1;fill-rule:nonzero;stroke:none"
         transform="matrix(0.13333333,0,0,-0.13333333,0,2177.7733)" />
      <path
         id="path56"
         d="m 17808.4,6387.09 c -54.4,-152.69 3,-262.59 93.7,-339.89 -5.6,-37.9 -11.4,-76.7 -17.1,-116.5 -8.7,-59.9 -14,-115.8 -16.5,-167.8 -222.7,98.8 -360.2,322.5 -292.7,706.28 65.2,370.16 329,388.68 450.9,376.52 -10,-72.9 -22.2,-151.87 -35.9,-238.21 -73.4,-35.91 -140.4,-102.73 -182.4,-220.4"
         style="fill:#ffd42a;fill-opacity:1;fill-rule:nonzero;stroke:none"
         transform="matrix(0.13333333,0,0,-0.13333333,0,2177.7733)" />
      <path
         id="path57"
         d="m 17418.5,7536.34 c 0,0 -109.4,-331.78 -17.1,-342.03 92.4,-10.27 222.3,259.94 140.3,362.55 -82.1,102.62 -123.2,-20.52 -123.2,-20.52"
         style="fill:#ffdd55;fill-opacity:1;fill-rule:nonzero;stroke:none"
         transform="matrix(0.13333333,0,0,-0.13333333,0,2177.7733)" />
      <path
         id="path58"
         d="m 17250,5410.1 c 88.9,-10.2 143.6,157.4 44.4,218.9 -99.2,61.6 -112.5,-67.8 -117.5,-90.8 -5.1,-23 -15.9,-117.8 73.1,-128.1"
         style="fill:#ffe680;fill-opacity:1;fill-rule:nonzero;stroke:none"
         transform="matrix(0.13333333,0,0,-0.13333333,0,2177.7733)" />
      <path
         id="path59"
         d="m 15891.7,7291.63 c 0,0 -2.4,-38.7 33.9,-19.35 36.3,19.35 96.7,58.05 -33.9,19.35 z"
         style="fill:none;stroke:#000000;stroke-width:38.3081;stroke-linecap:butt;stroke-linejoin:miter;stroke-miterlimit:11.3386;stroke-dasharray:none;stroke-opacity:1"
         transform="matrix(0.13333333,0,0,-0.13333333,0,2177.7733)" />
      <path
         id="path60"
         d="m 16861.6,7444 c 179.2,32.55 313.7,255.93 198.3,355.53 -61.2,52.81 -206.4,43.63 -295.1,-33.86 -88.6,-77.49 -155.5,-367.5 96.8,-321.67"
         style="fill:#ffffff;fill-opacity:1;fill-rule:nonzero;stroke:none"
         transform="matrix(0.13333333,0,0,-0.13333333,0,2177.7733)" />
      <path
         id="path61"
         d="m 16756.6,7444.1 c -110.8,47.47 -37,201.53 79.1,213.62 116.1,12.09 197.8,0 139.5,-124.23 -60.4,-74.98 -162.2,-113.57 -218.6,-89.39"
         style="fill:#000000;fill-opacity:1;fill-rule:nonzero;stroke:none"
         transform="matrix(0.13333333,0,0,-0.13333333,0,2177.7733)" />
      <path
         id="path62"
         d="m 15894.1,7141.68 c 0,0 -244.2,-149.95 -445,-125.77 -200.7,24.19 -331.3,-58.04 -331.3,-58.04 0,0 263.6,4.83 309.6,-9.67 45.9,-14.51 -125.8,-87.07 -142.7,-137.86 -17,-50.79 -31.5,-82.24 -31.5,-82.24 0,0 77.1,84.49 217.7,154.79 136.8,68.42 182.1,95.82 261.2,113.68 131,29.58 53.7,8.79 312,72.56 l -150,72.55"
         style="fill:#ff5555;fill-opacity:1;fill-rule:nonzero;stroke:none"
         transform="matrix(0.13333333,0,0,-0.13333333,0,2177.7733)" />
      <path
         id="path63"
         d="m 16132.5,7042.1 c 0,0 203.6,33.47 321.5,88.93 144.5,68.02 215.5,107.74 215.5,107.74 0,0 -34.2,-68.4 -157.4,-129.97 -123.1,-61.57 -266.8,-99.19 -266.8,-99.19 l -112.8,32.49"
         style="fill:#ffffff;fill-opacity:1;fill-rule:nonzero;stroke:none"
         transform="matrix(0.13333333,0,0,-0.13333333,0,2177.7733)" />
      <path
         id="path64"
         d="m 18820.4,5024.9 c -150.8,-100.3 -597.3,-178.2 -2057.8,-111.3 -288.8,13.2 -492.2,29.2 -632.6,46.5 13.3,11.8 27.1,22.9 41.5,33.3 264.8,191 2421.5,183.6 2648.9,31.5"
         style="fill:#158e9b;fill-opacity:1;fill-rule:nonzero;stroke:none"
         transform="matrix(0.13333333,0,0,-0.13333333,0,2177.7733)" />
      <path
         id="path65"
         d="m 16395.8,4269.9 c 166.6,-109.7 249.7,-301 578.1,-198.4 328.3,102.6 690.9,328.4 427.5,564.4 -263.4,236 -465.2,410.4 -738.8,218.9 -273.6,-191.6 -492.8,-436.1 -266.8,-584.9 v 0"
         style="fill:#ffcc00;fill-opacity:1;fill-rule:nonzero;stroke:none"
         transform="matrix(0.13333333,0,0,-0.13333333,0,2177.7733)" />
      <path
         id="path66"
         d="m 16731,4437.5 c 0,0 34.2,-130 92.4,-133.4 58.1,-3.4 348.8,95.8 229.1,222.3 -119.7,126.6 -307.8,51.3 -321.5,-88.9 v 0"
         style="fill:#ffdd55;fill-opacity:1;fill-rule:nonzero;stroke:none"
         transform="matrix(0.13333333,0,0,-0.13333333,0,2177.7733)" />
      <path
         id="path67"
         d="m 19770.8,2934.2 c -62.2,28.2 -100.7,88.5 -206.3,36.1 -105.6,-52.5 -216.1,-148.4 -114.2,-214.1 101.8,-65.6 179.5,-113.8 261.8,-34.2 82.2,79.5 143.2,174.1 58.7,212.2 v 0"
         style="fill:#ffcc00;fill-opacity:1;fill-rule:nonzero;stroke:none"
         transform="matrix(0.13333333,0,0,-0.13333333,0,2177.7733)" />
      <path
         id="path68"
         d="m 19666.4,2859.5 c 0,0 -18.5,42.1 -38.4,40.1 -19.9,-1.9 -112.9,-51.2 -65.6,-87.5 47.3,-36.4 107,-0.8 104,47.4 v 0"
         style="fill:#ffdd55;fill-opacity:1;fill-rule:nonzero;stroke:none"
         transform="matrix(0.13333333,0,0,-0.13333333,0,2177.7733)" />
      <path
         id="path69"
         d="m 6273.87,2956.9 c 0,0 -105.24,-1428.2 22.56,-1435.7 127.78,-7.6 142.82,669 142.82,766.7 0,97.7 623.91,-37.6 676.54,180.4 52.61,218 -94.89,569.4 -353.31,631.4 -163.12,39.2 -466.12,75.5 -488.61,-142.8 v 0"
         style="fill:#007082;fill-opacity:1;fill-rule:nonzero;stroke:none"
         transform="matrix(0.13333333,0,0,-0.13333333,0,2177.7733)" />
      <path
         id="path70"
         d="m 7160.87,2994.5 c 29.82,-276.9 364.39,-630.7 432.05,-766 67.65,-135.3 -63.71,-519.4 -11.11,-722.4 52.62,-202.9 187.93,-157.8 202.96,-22.5 15.02,135.3 -22.56,616.4 7.51,766.7 30.07,150.3 643.4,652.6 514.73,742.9 -305.81,214.5 -409.49,-525.7 -582.38,-524.9 -175.48,0.9 -254.63,539.7 -371.45,614.2 -125.69,80.3 -205.1,30.7 -192.32,-88 h 0.01"
         style="fill:#007082;fill-opacity:1;fill-rule:nonzero;stroke:none"
         transform="matrix(0.13333333,0,0,-0.13333333,0,2177.7733)" />
      <path
         id="path71"
         d="m 8776.44,2747.2 c 0,0 -37.14,-1319 74.27,-1350 111.41,-31 4.14,1292.4 99.03,1345.5 94.9,53.1 528.16,-35.4 507.52,75.3 -20.65,110.6 -994.41,225.7 -1048.06,79.7 -53.63,-146.1 288.84,-155 367.24,-150.5 v 0"
         style="fill:#007082;fill-opacity:1;fill-rule:nonzero;stroke:none"
         transform="matrix(0.13333333,0,0,-0.13333333,0,2177.7733)" />
      <path
         id="path72"
         d="m 9333.3,2701.3 c 0,0 -75.17,60.2 -86.45,-18.8 -11.27,-78.9 0,-1183.9 60.13,-1214 60.14,-30 78.93,236.8 93.97,413.5 15.02,176.6 345.78,206.7 432.22,97.7 86.45,-109 -22.55,-447.3 82.69,-473.6 105.24,-26.3 82.69,7.5 90.24,379.6 7.5,372.1 75.4,834.1 -56.41,841.9 -217.61,12.9 -48.86,-436 -120.27,-514.9 -71.41,-78.9 -360.82,-60.1 -394.65,26.3 -33.82,86.5 45.1,390.9 -101.47,462.3 v 0"
         style="fill:#007082;fill-opacity:1;fill-rule:nonzero;stroke:none"
         transform="matrix(0.13333333,0,0,-0.13333333,0,2177.7733)" />
      <path
         id="path73"
         d="m 10734.8,2718.8 c -86.3,3.8 -366.8,-212.6 -393.3,-494.4 -26.6,-281.7 223.2,-637.8 350.8,-643.1 127.5,-5.3 526.2,292.3 446.5,637.8 -79.8,345.5 -317.8,495.8 -404,499.7"
         style="fill:#007082;fill-opacity:1;fill-rule:nonzero;stroke:none"
         transform="matrix(0.13333333,0,0,-0.13333333,0,2177.7733)" />
      <path
         id="path74"
         d="m 11330.1,2601.8 c 0,0 -21.3,-1031.1 69.1,-1063 90.4,-31.9 122.3,255.1 101,499.6 -21.3,244.5 37.2,212.6 303,-79.7 265.7,-292.4 329.6,-625.7 345.5,-281.7 15.9,345.5 125.8,1070.5 15.9,1110.9 -260.3,95.7 -42.5,-972.7 -244.5,-701.7 -106.3,90.4 -552.8,893 -590,515.6 v 0"
         style="fill:#007082;fill-opacity:1;fill-rule:nonzero;stroke:none"
         transform="matrix(0.13333333,0,0,-0.13333333,0,2177.7733)" />
    </g>
  </g>
</svg>
